<svg width="878" height="542" viewBox="0 0 878 542" style="fill:none;stroke:none;fill-rule:evenodd;clip-rule:evenodd;stroke-linecap:round;stroke-linejoin:round;stroke-miterlimit:1.5;" version="1.1" xmlns="http://www.w3.org/2000/svg" xmlns:xlink="http://www.w3.org/1999/xlink"><g id="blend" style="mix-blend-mode:multiply"><g id="g-root-5.line_sy_13ymhns1clgxdv-fill" data-item-order="-264955" data-item-id="5.line_sy_13ymhns1clgxdv" data-item-class="ScenePart Indexed Stroke LeaderLine" data-item-index="5" data-renderer-id="0" transform="translate(315, 122.998046875)"></g><g id="g-root-5.cu_sy_13ymhns1clgxdw-fill" data-item-order="-264954" data-item-id="5.cu_sy_13ymhns1clgxdw" data-item-class="ScenePart Indexed Fill Stroke" data-item-index="5" data-renderer-id="0" transform="translate(387, 51)"><g id="5.cu_sy_13ymhns1clgxdw-fill" stroke="none" fill="#fffce6"><g xmlns="http://www.w3.org/2000/svg"><path d="M 490 250C 490 382.548 382.548 490 250 490C 117.452 490 10 382.548 10 250C 10 117.452 117.452 10 250 10C 382.548 10 490 117.452 490 250ZM 250 442C 356.039 442 442 356.039 442 250C 442 143.961 356.039 58 250 58C 143.961 58 58 143.961 58 250C 58 356.039 143.961 442 250 442Z"></path></g></g></g><g id="g-root-4.cu_sy_13ymhns1clgxdt-fill" data-item-order="-264952" data-item-id="4.cu_sy_13ymhns1clgxdt" data-item-class="ScenePart Indexed Fill Stroke" data-item-index="4" data-renderer-id="0" transform="translate(435, 99)"><g id="4.cu_sy_13ymhns1clgxdt-fill" stroke="none" fill="#fef2e6"><g xmlns="http://www.w3.org/2000/svg"><path d="M 394 202C 394 308.039 308.039 394 202 394C 95.961 394 10 308.039 10 202C 10 95.961 95.961 10 202 10C 308.039 10 394 95.961 394 202ZM 202 346C 281.529 346 346 281.529 346 202C 346 122.471 281.529 58 202 58C 122.471 58 58 122.471 58 202C 58 281.529 122.471 346 202 346Z"></path></g></g></g><g id="g-root-4.line_sy_13ymhns1clgxdu-fill" data-item-order="-264949" data-item-id="4.line_sy_13ymhns1clgxdu" data-item-class="ScenePart Indexed Stroke LeaderLine" data-item-index="4" data-renderer-id="0" transform="translate(315, 207)"></g><g id="g-root-3.cu_sy_ziszjc1clgxe7-fill" data-item-order="-264948" data-item-id="3.cu_sy_ziszjc1clgxe7" data-item-class="ScenePart Indexed Fill Stroke" data-item-index="3" data-renderer-id="0" transform="translate(483, 147)"><g id="3.cu_sy_ziszjc1clgxe7-fill" stroke="none" fill="#e6efff"><g xmlns="http://www.w3.org/2000/svg"><path d="M 298 154C 298 233.529 233.529 298 154 298C 74.471 298 10 233.529 10 154C 10 74.471 74.471 10 154 10C 233.529 10 298 74.471 298 154ZM 154 250C 207.019 250 250 207.019 250 154C 250 100.981 207.019 58 154 58C 100.981 58 58 100.981 58 154C 58 207.019 100.981 250 154 250Z"></path></g></g></g><g id="g-root-3.line_sy_13ymhns1clgxds-fill" data-item-order="-264945" data-item-id="3.line_sy_13ymhns1clgxds" data-item-class="ScenePart Indexed Stroke LeaderLine" data-item-index="3" data-renderer-id="0" transform="translate(315, 290.9990234375)"></g><g id="g-root-2.cu_sy_18nt42w1clfl6t-fill" data-item-order="-264944" data-item-id="2.cu_sy_18nt42w1clfl6t" data-item-class="ScenePart Indexed Fill Stroke" data-item-index="2" data-renderer-id="0" transform="translate(531, 195)"><g id="2.cu_sy_18nt42w1clfl6t-fill" stroke="none" fill="#e6f9ff"><g xmlns="http://www.w3.org/2000/svg"><path d="M 202 106C 202 159.019 159.019 202 106 202C 52.981 202 10 159.019 10 106C 10 52.981 52.981 10 106 10C 159.019 10 202 52.981 202 106ZM 106 154C 132.51 154 154 132.51 154 106C 154 79.49 132.51 58 106 58C 79.49 58 58 79.49 58 106C 58 132.51 79.49 154 106 154Z"></path></g></g></g><g id="g-root-2.line_sy_18nt42w1clfl6u-fill" data-item-order="-264941" data-item-id="2.line_sy_18nt42w1clfl6u" data-item-class="ScenePart Indexed Stroke LeaderLine" data-item-index="2" data-renderer-id="0" transform="translate(315, 315.9429931640625)"></g><g id="g-root-1.cu_sy_18nt42w1clfl6r-fill" data-item-order="-264940" data-item-id="1.cu_sy_18nt42w1clfl6r" data-item-class="ScenePart Indexed Indexed_1 Fill Stroke" data-item-index="1" data-renderer-id="0" transform="translate(579, 243)"><g id="1.cu_sy_18nt42w1clfl6r-fill" stroke="none" fill="#e9fbf3"><g xmlns="http://www.w3.org/2000/svg"><path d="M 106 58C 106 84.51 84.51 106 58 106C 31.49 106 10 84.51 10 58C 10 31.49 31.49 10 58 10C 84.51 10 106 31.49 106 58Z"></path></g></g></g><g id="g-root-1.line_sy_18nt42w1clfl6s-fill" data-item-order="-264937" data-item-id="1.line_sy_18nt42w1clfl6s" data-item-class="ScenePart Indexed Indexed_1 Stroke LeaderLine" data-item-index="1" data-renderer-id="0" transform="translate(315, 313.77197265625)"></g><g id="g-root-tx_automati_v2zhew1clgy6l-fill" data-item-order="0" data-item-id="tx_automati_v2zhew1clgy6l" data-item-class="Label Stroke SceneTarget SceneTitle" data-item-index="none" data-renderer-id="0" transform="translate(207, -9)"></g><g id="g-root-tx_dataextr_dcby081clgxe2-fill" data-item-order="0" data-item-id="tx_dataextr_dcby081clgxe2" data-item-class="Label Stroke SceneTarget Indexed" data-item-index="5" data-renderer-id="0" transform="translate(87, 111)"></g><g id="g-root-sear_ddkw6g1clgzk7-fill" data-item-order="0" data-item-id="sear_ddkw6g1clgzk7" data-item-class="Icon Stroke SceneTarget Indexed" data-item-index="5" data-renderer-id="0" transform="translate(255, 99)"></g><g id="g-root-tx_comparis_dcby081clgxe1-fill" data-item-order="0" data-item-id="tx_comparis_dcby081clgxe1" data-item-class="Label Stroke SceneTarget Indexed" data-item-index="4" data-renderer-id="0" transform="translate(-9, 195)"></g><g id="g-root-1_hteeaw1clgyry-fill" data-item-order="0" data-item-id="1_hteeaw1clgyry" data-item-class="Icon Stroke SceneTarget Indexed" data-item-index="4" data-renderer-id="0" transform="translate(255, 183)"></g><g id="g-root-tx_automati_m7ch601clgzr4-fill" data-item-order="0" data-item-id="tx_automati_m7ch601clgzr4" data-item-class="Label Stroke SceneTarget Indexed" data-item-index="3" data-renderer-id="0" transform="translate(39, 279)"></g><g id="g-root-2_hteeaw1clgyrx-fill" data-item-order="0" data-item-id="2_hteeaw1clgyrx" data-item-class="Icon Stroke SceneTarget Indexed" data-item-index="3" data-renderer-id="0" transform="translate(255, 267)"></g><g id="g-root-tx_reportin_hriz1k1clgzrj-fill" data-item-order="0" data-item-id="tx_reportin_hriz1k1clgzrj" data-item-class="Label Stroke SceneTarget Indexed" data-item-index="2" data-renderer-id="0" transform="translate(147, 363)"></g><g id="g-root-1_qp1ejs1clgxz8-fill" data-item-order="0" data-item-id="1_qp1ejs1clgxz8" data-item-class="Icon Stroke SceneTarget Indexed" data-item-index="2" data-renderer-id="0" transform="translate(255, 351)"></g><g id="g-root-tx_successf_qn5zag1clgyyu-fill" data-item-order="0" data-item-id="tx_successf_qn5zag1clgyyu" data-item-class="Label Stroke SceneTarget Indexed Indexed_1" data-item-index="1" data-renderer-id="0" transform="translate(63, 447)"></g><g id="g-root-chec_hwirqg1clgzy8-fill" data-item-order="0" data-item-id="chec_hwirqg1clgzy8" data-item-class="Icon Stroke SceneTarget Indexed Indexed_1" data-item-index="1" data-renderer-id="0" transform="translate(255, 435)"></g><g id="g-root-5.line_sy_13ymhns1clgxdv-stroke" data-item-order="-264955" data-item-id="5.line_sy_13ymhns1clgxdv" data-item-class="ScenePart Indexed Stroke LeaderLine" data-item-index="5" data-renderer-id="0" transform="translate(315, 122.998046875)"><g id="5.line_sy_13ymhns1clgxdv-stroke" fill="none" stroke-linecap="round" stroke-linejoin="round" stroke-miterlimit="1.5" stroke="#484848" stroke-width="2"><g xmlns="http://www.w3.org/2000/svg"><path d="M 10 10L 110.75 64.25"></path></g></g></g><g id="g-root-5.cu_sy_13ymhns1clgxdw-stroke" data-item-order="-264954" data-item-id="5.cu_sy_13ymhns1clgxdw" data-item-class="ScenePart Indexed Fill Stroke" data-item-index="5" data-renderer-id="0" transform="translate(387, 51)"><g id="5.cu_sy_13ymhns1clgxdw-stroke" fill="none" stroke-linecap="round" stroke-linejoin="round" stroke-miterlimit="1.5" stroke="#e3cd09" stroke-width="2"><g xmlns="http://www.w3.org/2000/svg"><path d="M 490 250C 490 382.548 382.548 490 250 490C 117.452 490 10 382.548 10 250C 10 117.452 117.452 10 250 10C 382.548 10 490 117.452 490 250ZM 250 442C 356.039 442 442 356.039 442 250C 442 143.961 356.039 58 250 58C 143.961 58 58 143.961 58 250C 58 356.039 143.961 442 250 442Z"></path></g></g></g><g id="g-root-4.cu_sy_13ymhns1clgxdt-stroke" data-item-order="-264952" data-item-id="4.cu_sy_13ymhns1clgxdt" data-item-class="ScenePart Indexed Fill Stroke" data-item-index="4" data-renderer-id="0" transform="translate(435, 99)"><g id="4.cu_sy_13ymhns1clgxdt-stroke" fill="none" stroke-linecap="round" stroke-linejoin="round" stroke-miterlimit="1.5" stroke="#dd8433" stroke-width="2"><g xmlns="http://www.w3.org/2000/svg"><path d="M 394 202C 394 308.039 308.039 394 202 394C 95.961 394 10 308.039 10 202C 10 95.961 95.961 10 202 10C 308.039 10 394 95.961 394 202ZM 202 346C 281.529 346 346 281.529 346 202C 346 122.471 281.529 58 202 58C 122.471 58 58 122.471 58 202C 58 281.529 122.471 346 202 346Z"></path></g></g></g><g id="g-root-4.line_sy_13ymhns1clgxdu-stroke" data-item-order="-264949" data-item-id="4.line_sy_13ymhns1clgxdu" data-item-class="ScenePart Indexed Stroke LeaderLine" data-item-index="4" data-renderer-id="0" transform="translate(315, 207)"><g id="4.line_sy_13ymhns1clgxdu-stroke" fill="none" stroke-linecap="round" stroke-linejoin="round" stroke-miterlimit="1.5" stroke="#484848" stroke-width="2"><g xmlns="http://www.w3.org/2000/svg"><path d="M 10 10L 136.5 44.057"></path></g></g></g><g id="g-root-3.cu_sy_ziszjc1clgxe7-stroke" data-item-order="-264948" data-item-id="3.cu_sy_ziszjc1clgxe7" data-item-class="ScenePart Indexed Fill Stroke" data-item-index="3" data-renderer-id="0" transform="translate(483, 147)"><g id="3.cu_sy_ziszjc1clgxe7-stroke" fill="none" stroke-linecap="round" stroke-linejoin="round" stroke-miterlimit="1.5" stroke="#4682e3" stroke-width="2"><g xmlns="http://www.w3.org/2000/svg"><path d="M 298 154C 298 233.529 233.529 298 154 298C 74.471 298 10 233.529 10 154C 10 74.471 74.471 10 154 10C 233.529 10 298 74.471 298 154ZM 154 250C 207.019 250 250 207.019 250 154C 250 100.981 207.019 58 154 58C 100.981 58 58 100.981 58 154C 58 207.019 100.981 250 154 250Z"></path></g></g></g><g id="g-root-3.line_sy_13ymhns1clgxds-stroke" data-item-order="-264945" data-item-id="3.line_sy_13ymhns1clgxds" data-item-class="ScenePart Indexed Stroke LeaderLine" data-item-index="3" data-renderer-id="0" transform="translate(315, 290.9990234375)"><g id="3.line_sy_13ymhns1clgxds-stroke" fill="none" stroke-linecap="round" stroke-linejoin="round" stroke-miterlimit="1.5" stroke="#484848" stroke-width="2"><g xmlns="http://www.w3.org/2000/svg"><path d="M 10 10L 178 10"></path></g></g></g><g id="g-root-2.cu_sy_18nt42w1clfl6t-stroke" data-item-order="-264944" data-item-id="2.cu_sy_18nt42w1clfl6t" data-item-class="ScenePart Indexed Fill Stroke" data-item-index="2" data-renderer-id="0" transform="translate(531, 195)"><g id="2.cu_sy_18nt42w1clfl6t-stroke" fill="none" stroke-linecap="round" stroke-linejoin="round" stroke-miterlimit="1.5" stroke="#17b0e3" stroke-width="2"><g xmlns="http://www.w3.org/2000/svg"><path d="M 202 106C 202 159.019 159.019 202 106 202C 52.981 202 10 159.019 10 106C 10 52.981 52.981 10 106 10C 159.019 10 202 52.981 202 106ZM 106 154C 132.51 154 154 132.51 154 106C 154 79.49 132.51 58 106 58C 79.49 58 58 79.49 58 106C 58 132.51 79.49 154 106 154Z"></path></g></g></g><g id="g-root-2.line_sy_18nt42w1clfl6u-stroke" data-item-order="-264941" data-item-id="2.line_sy_18nt42w1clfl6u" data-item-class="ScenePart Indexed Stroke LeaderLine" data-item-index="2" data-renderer-id="0" transform="translate(315, 315.9429931640625)"><g id="2.line_sy_18nt42w1clfl6u-stroke" fill="none" stroke-linecap="round" stroke-linejoin="round" stroke-miterlimit="1.5" stroke="#484848" stroke-width="2"><g xmlns="http://www.w3.org/2000/svg"><path d="M 10 69.057L 229.352 10"></path></g></g></g><g id="g-root-1.cu_sy_18nt42w1clfl6r-stroke" data-item-order="-264940" data-item-id="1.cu_sy_18nt42w1clfl6r" data-item-class="ScenePart Indexed Indexed_1 Fill Stroke" data-item-index="1" data-renderer-id="0" transform="translate(579, 243)"><g id="1.cu_sy_18nt42w1clfl6r-stroke" fill="none" stroke-linecap="round" stroke-linejoin="round" stroke-miterlimit="1.5" stroke="#3bc482" stroke-width="2"><g xmlns="http://www.w3.org/2000/svg"><path d="M 106 58C 106 84.51 84.51 106 58 106C 31.49 106 10 84.51 10 58C 10 31.49 31.49 10 58 10C 84.51 10 106 31.49 106 58Z"></path></g></g></g><g id="g-root-1.line_sy_18nt42w1clfl6s-stroke" data-item-order="-264937" data-item-id="1.line_sy_18nt42w1clfl6s" data-item-class="ScenePart Indexed Indexed_1 Stroke LeaderLine" data-item-index="1" data-renderer-id="0" transform="translate(315, 313.77197265625)"><g id="1.line_sy_18nt42w1clfl6s-stroke" fill="none" stroke-linecap="round" stroke-linejoin="round" stroke-miterlimit="1.5" stroke="#484848" stroke-width="2"><g xmlns="http://www.w3.org/2000/svg"><path d="M 10 155.229L 279.707 10"></path></g></g></g><g id="g-root-tx_automati_v2zhew1clgy6l-stroke" data-item-order="0" data-item-id="tx_automati_v2zhew1clgy6l" data-item-class="Label Stroke SceneTarget SceneTitle" data-item-index="none" data-renderer-id="0" transform="translate(207, -9)"><g id="tx_automati_v2zhew1clgy6l-stroke" fill="none" stroke-linecap="square" stroke-linejoin="miter" stroke-miterlimit="4" stroke="#484848" stroke-width="2"><g xmlns="http://www.w3.org/2000/svg"><path d="M 13.744 28.145L 18.692 14.973L 19.28 14.973L 24.244 28.145M 15.561 24.294L 22.42 24.294M 35.027 28.115L 35.026 18.767M 28.192 18.767L 28.192 24.821C 28.192 25.533 28.097 28.096 30.479 28.308C 32.57 28.493 33.843 27.653 34.546 26.47M 42.799 28.326C 41.39 28.465 40.532 27.732 40.532 26.387L 40.532 16.081M 42.682 18.642L 40.918 18.642M 38.422 18.642L 40.155 18.642M 54.507 23.457C 54.507 26.522 52.636 28.34 50.328 28.34C 48.02 28.34 46.149 26.522 46.149 23.457C 46.149 20.392 48.02 18.573 50.328 18.573C 52.636 18.573 54.507 20.392 54.507 23.457ZM 58.72 18.814L 58.72 28.162M 65.554 28.162L 65.543 21.47C 65.479 20.526 65.112 19.078 63.238 18.649C 61.298 18.205 59.818 19.248 59.082 20.595M 72.389 28.162L 72.389 22.108C 72.389 21.396 72.504 19.206 70.073 18.649C 68.044 18.184 66.51 19.347 65.809 20.783M 77.288 20.246C 77.652 19.28 79.068 18.567 80.408 18.567C 82.262 18.567 83.764 19.88 83.764 21.499L 83.77 22.957L 83.77 25.571C 83.77 26.614 83.745 27.353 84.047 28.278M 83.39 22.957L 80.662 22.957C 78.159 22.957 76.859 24.343 76.859 25.837C 76.859 27.331 78.097 28.341 79.713 28.341C 81.695 28.341 83.321 26.888 83.721 25.732M 91.569 28.326C 90.16 28.465 89.302 27.732 89.302 26.387L 89.302 16.081M 91.452 18.642L 89.688 18.642M 87.192 18.642L 88.925 18.642M 95.658 14.971L 95.682 14.971M 95.642 18.804L 95.642 28.145M 107.382 26.254C 107.01 27.649 105.442 28.339 103.973 28.339C 101.836 28.339 100.07 27.028 100.07 23.456C 100.07 19.884 101.939 18.573 104.077 18.573C 105.584 18.573 107.234 19.41 107.467 20.915M 117.911 28.131L 117.911 14.944L 123.19 14.928C 124.288 14.967 126.673 15.749 126.673 18.572C 126.673 21.394 124.288 22.254 123.19 22.331L 118.439 22.345M 137.597 28.115L 137.596 18.767M 130.762 18.767L 130.762 24.821C 130.762 25.533 130.667 28.096 133.049 28.308C 135.14 28.493 136.413 27.653 137.115 26.47M 146.005 18.609C 144.624 18.419 143.376 19.319 142.734 20.619M 142.379 18.773L 142.379 28.123M 156.322 26.254C 155.95 27.649 154.382 28.339 152.913 28.339C 150.776 28.339 149.01 27.028 149.01 23.456C 149.01 19.884 150.879 18.573 153.017 18.573C 154.524 18.573 156.174 19.41 156.407 20.915M 160.478 14.086L 160.478 28.128M 167.342 28.128L 167.342 22.074C 167.342 21.362 167.438 18.791 165.045 18.587C 163.291 18.439 161.606 19.547 160.819 20.928M 172.178 20.246C 172.542 19.28 173.958 18.567 175.298 18.567C 177.152 18.567 178.654 19.88 178.654 21.499L 178.66 22.957L 178.66 25.571C 178.66 26.614 178.635 27.353 178.936 28.278M 178.28 22.957L 175.552 22.957C 173.049 22.957 171.749 24.343 171.749 25.837C 171.749 27.331 172.987 28.341 174.603 28.341C 176.585 28.341 178.211 26.888 178.611 25.732M 189.648 20.381C 189.352 19.404 188.198 18.584 186.588 18.584C 184.7 18.584 183.48 19.447 183.389 20.751C 183.284 22.246 184.518 22.822 186.448 23.339C 188.142 23.797 190.085 24.277 189.931 26.122C 189.832 27.31 188.855 28.346 186.498 28.346C 184.592 28.346 183.515 27.53 183.18 26.424M 200.947 27.218C 199.974 28.155 198.949 28.339 197.763 28.339C 195.695 28.339 193.831 27.028 193.831 23.456C 193.831 19.884 195.641 18.573 197.71 18.573C 199.778 18.573 201.382 19.63 201.382 23.201L 194.162 23.201M 211.233 21.438C 211.233 26.143 213.28 28.326 216.288 28.326C 219.297 28.326 221.343 26.143 221.343 21.438C 221.343 16.733 219.127 14.721 216.288 14.721C 213.45 14.721 211.233 16.733 211.233 21.438ZM 229.485 18.609C 228.104 18.419 226.856 19.319 226.214 20.619M 225.859 18.773L 225.859 28.123M 239.99 28.124L 239.99 14.123M 239.63 26.773C 238.768 27.871 237.67 28.34 236.36 28.34C 234.179 28.34 232.527 27.029 232.527 23.458C 232.527 19.886 234.284 18.575 236.466 18.575C 237.735 18.575 238.945 19.114 239.63 20.175M 251.487 27.218C 250.514 28.155 249.489 28.339 248.303 28.339C 246.235 28.339 244.371 27.028 244.371 23.456C 244.371 19.884 246.181 18.573 248.25 18.573C 250.318 18.573 251.922 19.63 251.922 23.201L 244.702 23.201M 259.575 18.609C 258.194 18.419 256.946 19.319 256.304 20.619M 255.949 18.773L 255.949 28.123M 273.437 28.18L 269.428 28.183L 269.428 14.948C 270.375 14.948 271.654 14.946 273.054 14.946C 274.507 14.91 278.287 16.173 278.287 21.511C 278.287 26.848 274.762 28.18 273.437 28.18ZM 282.978 20.246C 283.342 19.28 284.758 18.567 286.098 18.567C 287.952 18.567 289.454 19.88 289.454 21.499L 289.46 22.957L 289.46 25.571C 289.46 26.614 289.435 27.353 289.737 28.278M 289.08 22.957L 286.352 22.957C 283.849 22.957 282.549 24.343 282.549 25.837C 282.549 27.331 283.787 28.341 285.403 28.341C 287.385 28.341 289.011 26.888 289.411 25.732M 297.259 28.326C 295.85 28.465 294.992 27.732 294.992 26.387L 294.992 16.081M 297.142 18.642L 295.378 18.642M 292.882 18.642L 294.615 18.642M 301.288 20.246C 301.652 19.28 303.068 18.567 304.408 18.567C 306.262 18.567 307.764 19.88 307.764 21.499L 307.77 22.957L 307.77 25.571C 307.77 26.614 307.745 27.353 308.047 28.278M 307.39 22.957L 304.662 22.957C 302.159 22.957 300.859 24.343 300.859 25.837C 300.859 27.331 302.097 28.341 303.713 28.341C 305.695 28.341 307.321 26.888 307.721 25.732M 318.951 28.117L 318.959 14.978L 319.928 14.978L 325.231 28.115L 325.547 28.115L 330.866 14.978L 331.836 14.978L 331.83 28.117M 337.048 20.246C 337.412 19.28 338.828 18.567 340.168 18.567C 342.022 18.567 343.524 19.88 343.524 21.499L 343.53 22.957L 343.53 25.571C 343.53 26.614 343.505 27.353 343.806 28.278M 343.15 22.957L 340.422 22.957C 337.919 22.957 336.619 24.343 336.619 25.837C 336.619 27.331 337.857 28.341 339.473 28.341C 341.455 28.341 343.081 26.888 343.481 25.732M 351.329 28.326C 349.92 28.465 349.062 27.732 349.062 26.387L 349.062 16.081M 351.212 18.642L 349.448 18.642M 346.952 18.642L 348.685 18.642M 362.052 26.254C 361.68 27.649 360.112 28.339 358.643 28.339C 356.506 28.339 354.74 27.028 354.74 23.456C 354.74 19.884 356.609 18.573 358.747 18.573C 360.254 18.573 361.904 19.41 362.137 20.915M 366.208 14.086L 366.208 28.128M 373.072 28.128L 373.072 22.074C 373.072 21.362 373.168 18.791 370.775 18.587C 369.021 18.439 367.336 19.547 366.549 20.928M 377.968 14.971L 377.992 14.971M 377.952 18.804L 377.952 28.145M 382.879 18.78L 382.879 28.128M 389.713 28.128L 389.713 22.074C 389.713 21.362 389.809 18.79 387.426 18.587C 385.668 18.437 383.979 19.562 383.203 20.956M 401.499 18.652L 401.499 28.654C 401.499 33.351 396.206 33.001 394.771 31.47M 401.165 26.573C 400.485 27.661 399.261 28.214 397.975 28.214C 395.794 28.214 394.037 26.903 394.037 23.331C 394.037 19.76 395.688 18.449 397.87 18.449C 399.138 18.449 400.443 19.129 401.165 20.502"></path></g></g></g><g id="g-root-tx_dataextr_dcby081clgxe2-stroke" data-item-order="0" data-item-id="tx_dataextr_dcby081clgxe2" data-item-class="Label Stroke SceneTarget Indexed" data-item-index="5" data-renderer-id="0" transform="translate(87, 111)"><g id="tx_dataextr_dcby081clgxe2-stroke" fill="none" stroke-linecap="square" stroke-linejoin="miter" stroke-miterlimit="4" stroke="#484848" stroke-width="2"><g xmlns="http://www.w3.org/2000/svg"><path d="M 26.867 28.18L 22.858 28.183L 22.858 14.948C 23.805 14.948 25.084 14.946 26.484 14.946C 27.937 14.91 31.717 16.173 31.717 21.511C 31.717 26.848 28.192 28.18 26.867 28.18ZM 36.408 20.246C 36.772 19.28 38.188 18.567 39.528 18.567C 41.382 18.567 42.884 19.88 42.884 21.499L 42.89 22.957L 42.89 25.571C 42.89 26.614 42.865 27.353 43.166 28.278M 42.51 22.957L 39.782 22.957C 37.279 22.957 35.979 24.343 35.979 25.837C 35.979 27.331 37.217 28.341 38.832 28.341C 40.815 28.341 42.441 26.888 42.841 25.732M 50.689 28.326C 49.28 28.465 48.422 27.732 48.422 26.387L 48.422 16.081M 50.572 18.642L 48.808 18.642M 46.312 18.642L 48.045 18.642M 54.718 20.246C 55.082 19.28 56.498 18.567 57.838 18.567C 59.692 18.567 61.194 19.88 61.194 21.499L 61.2 22.957L 61.2 25.571C 61.2 26.614 61.175 27.353 61.476 28.278M 60.82 22.957L 58.092 22.957C 55.589 22.957 54.289 24.343 54.289 25.837C 54.289 27.331 55.527 28.341 57.142 28.341C 59.125 28.341 60.751 26.888 61.151 25.732M 79.937 28.137L 72.374 28.142L 72.374 14.95C 73.322 14.95 78.496 14.95 79.896 14.95M 78.884 21.297L 72.838 21.297M 83.698 18.611L 86.689 23.243M 89.961 28.31L 86.864 23.514M 89.85 18.611L 83.587 28.31M 97.379 28.326C 95.97 28.465 95.112 27.732 95.112 26.387L 95.112 16.081M 97.262 18.642L 95.498 18.642M 93.002 18.642L 94.735 18.642M 104.895 18.609C 103.514 18.419 102.266 19.319 101.624 20.619M 101.269 18.773L 101.269 28.123M 108.518 20.246C 108.882 19.28 110.298 18.567 111.638 18.567C 113.492 18.567 114.994 19.88 114.994 21.499L 115 22.957L 115 25.571C 115 26.614 114.975 27.353 115.276 28.278M 114.62 22.957L 111.892 22.957C 109.389 22.957 108.089 24.343 108.089 25.837C 108.089 27.331 109.327 28.341 110.942 28.341C 112.925 28.341 114.551 26.888 114.951 25.732M 126.642 26.254C 126.27 27.649 124.702 28.339 123.233 28.339C 121.096 28.339 119.33 27.028 119.33 23.456C 119.33 19.884 121.199 18.573 123.337 18.573C 124.844 18.573 126.494 19.41 126.727 20.915M 133.779 28.326C 132.37 28.465 131.512 27.732 131.512 26.387L 131.512 16.081M 133.662 18.642L 131.898 18.642M 129.402 18.642L 131.135 18.642M 137.868 14.971L 137.892 14.971M 137.852 18.804L 137.852 28.145M 150.577 23.457C 150.577 26.522 148.706 28.34 146.398 28.34C 144.09 28.34 142.219 26.522 142.219 23.457C 142.219 20.392 144.09 18.573 146.398 18.573C 148.706 18.573 150.577 20.392 150.577 23.457ZM 154.769 18.78L 154.769 28.128M 161.603 28.128L 161.603 22.074C 161.603 21.362 161.699 18.79 159.316 18.587C 157.558 18.437 155.869 19.562 155.093 20.956"></path></g></g></g><g id="g-root-sear_ddkw6g1clgzk7-stroke" data-item-order="0" data-item-id="sear_ddkw6g1clgzk7" data-item-class="Icon Stroke SceneTarget Indexed" data-item-index="5" data-renderer-id="0" transform="translate(255, 99)"><g id="sear_ddkw6g1clgzk7-stroke" fill="none" stroke-linecap="round" stroke-linejoin="round" stroke-miterlimit="1.5" stroke="#484848" stroke-width="2"><g xmlns="http://www.w3.org/2000/svg"><path d="M 11.714 30.297C 11.712 40.562 20.033 48.884 30.297 48.884C 40.562 48.884 48.882 40.562 48.88 30.297C 48.882 20.033 40.562 11.711 30.297 11.711C 20.033 11.711 11.712 20.033 11.714 30.297M 56.286 56.286L 43.429 43.429"></path></g></g></g><g id="g-root-tx_comparis_dcby081clgxe1-stroke" data-item-order="0" data-item-id="tx_comparis_dcby081clgxe1" data-item-class="Label Stroke SceneTarget Indexed" data-item-index="4" data-renderer-id="0" transform="translate(-9, 195)"><g id="tx_comparis_dcby081clgxe1-stroke" fill="none" stroke-linecap="square" stroke-linejoin="miter" stroke-miterlimit="4" stroke="#484848" stroke-width="2"><g xmlns="http://www.w3.org/2000/svg"><path d="M 29.157 25.13C 28.496 27.034 26.708 28.398 24.605 28.398C 21.94 28.398 19.779 26.207 19.779 23.504L 19.779 19.621C 19.779 16.918 21.94 14.727 24.605 14.727C 26.708 14.727 28.496 16.091 29.157 17.995M 41.397 23.457C 41.397 26.522 39.526 28.34 37.218 28.34C 34.91 28.34 33.039 26.522 33.039 23.457C 33.039 20.392 34.91 18.573 37.218 18.573C 39.526 18.573 41.397 20.392 41.397 23.457ZM 45.61 18.814L 45.61 28.162M 52.444 28.162L 52.433 21.47C 52.369 20.526 52.002 19.078 50.128 18.649C 48.188 18.205 46.708 19.248 45.972 20.595M 59.279 28.162L 59.279 22.108C 59.279 21.396 59.394 19.206 56.963 18.649C 54.934 18.184 53.4 19.347 52.699 20.783M 64.053 18.774L 64.053 32.393M 64.419 20.124C 65.302 19.027 66.483 18.558 67.792 18.558C 69.973 18.558 71.552 19.904 71.552 23.476C 71.552 27.047 69.868 28.323 67.686 28.323C 66.415 28.323 65.129 27.783 64.419 26.719M 75.948 20.246C 76.312 19.28 77.728 18.567 79.068 18.567C 80.922 18.567 82.424 19.88 82.424 21.499L 82.43 22.957L 82.43 25.571C 82.43 26.614 82.405 27.353 82.707 28.278M 82.05 22.957L 79.322 22.957C 76.819 22.957 75.519 24.343 75.519 25.837C 75.519 27.331 76.757 28.341 78.373 28.341C 80.355 28.341 81.981 26.888 82.381 25.732M 90.865 18.609C 89.484 18.419 88.236 19.319 87.594 20.619M 87.239 18.773L 87.239 28.123M 94.548 14.971L 94.572 14.971M 94.532 18.804L 94.532 28.145M 105.618 20.381C 105.322 19.404 104.168 18.584 102.558 18.584C 100.67 18.584 99.45 19.447 99.359 20.751C 99.254 22.246 100.488 22.822 102.418 23.339C 104.112 23.797 106.055 24.277 105.901 26.122C 105.802 27.31 104.825 28.346 102.468 28.346C 100.562 28.346 99.485 27.53 99.15 26.424M 118.067 23.457C 118.067 26.522 116.196 28.34 113.888 28.34C 111.58 28.34 109.709 26.522 109.709 23.457C 109.709 20.392 111.58 18.573 113.888 18.573C 116.196 18.573 118.067 20.392 118.067 23.457ZM 122.259 18.78L 122.259 28.128M 129.093 28.128L 129.093 22.074C 129.093 21.362 129.189 18.79 126.806 18.587C 125.048 18.437 123.359 19.562 122.583 20.956M 139.068 18.69L 141.783 28.119L 142.161 28.119L 145.103 18.782L 145.538 18.782L 148.544 28.119L 148.894 28.119L 151.611 18.69M 155.808 14.971L 155.832 14.971M 155.792 18.804L 155.792 28.145M 163.689 28.326C 162.28 28.465 161.422 27.732 161.422 26.387L 161.422 16.081M 163.572 18.642L 161.808 18.642M 159.312 18.642L 161.045 18.642M 167.588 14.086L 167.588 28.128M 174.452 28.128L 174.452 22.074C 174.452 21.362 174.548 18.791 172.155 18.587C 170.401 18.439 168.716 19.547 167.929 20.928M 185.531 28.131L 185.531 14.944L 190.81 14.928C 191.908 14.967 194.293 15.749 194.293 18.572C 194.293 21.394 191.908 22.254 190.81 22.331L 186.059 22.345M 198.213 21.438C 198.213 26.143 200.26 28.326 203.268 28.326C 206.277 28.326 208.324 26.143 208.324 21.438C 208.324 16.733 206.107 14.721 203.268 14.721C 200.43 14.721 198.213 16.733 198.213 21.438ZM 223.217 28.18L 219.208 28.183L 219.208 14.948C 220.155 14.948 221.434 14.946 222.834 14.946C 224.287 14.91 228.067 16.173 228.067 21.511C 228.067 26.848 224.542 28.18 223.217 28.18ZM 232.758 20.246C 233.122 19.28 234.538 18.567 235.878 18.567C 237.732 18.567 239.234 19.88 239.234 21.499L 239.24 22.957L 239.24 25.571C 239.24 26.614 239.215 27.353 239.517 28.278M 238.86 22.957L 236.132 22.957C 233.629 22.957 232.329 24.343 232.329 25.837C 232.329 27.331 233.567 28.341 235.183 28.341C 237.165 28.341 238.791 26.888 239.191 25.732M 247.039 28.326C 245.63 28.465 244.772 27.732 244.772 26.387L 244.772 16.081M 246.922 18.642L 245.158 18.642M 242.662 18.642L 244.395 18.642M 251.068 20.246C 251.432 19.28 252.848 18.567 254.188 18.567C 256.042 18.567 257.544 19.88 257.544 21.499L 257.55 22.957L 257.55 25.571C 257.55 26.614 257.525 27.353 257.827 28.278M 257.17 22.957L 254.442 22.957C 251.939 22.957 250.639 24.343 250.639 25.837C 250.639 27.331 251.877 28.341 253.493 28.341C 255.475 28.341 257.101 26.888 257.501 25.732"></path></g></g></g><g id="g-root-1_hteeaw1clgyry-stroke" data-item-order="0" data-item-id="1_hteeaw1clgyry" data-item-class="Icon Stroke SceneTarget Indexed" data-item-index="4" data-renderer-id="0" transform="translate(255, 183)"><g id="1_hteeaw1clgyry-stroke" fill="none" stroke-linecap="round" stroke-linejoin="round" stroke-miterlimit="1.5" stroke="#484848" stroke-width="2"><g xmlns="http://www.w3.org/2000/svg"><path d="M 34 17L 34 54M 12 42L 19 27.07L 26 42M 19 49C 20.87 49.047 22.678 48.324 24.001 47.001C 25.324 45.678 26.047 43.87 26 42L 12 42C 11.953 43.87 12.676 45.678 13.999 47.001C 15.322 48.324 17.13 49.047 19 49ZM 56 30L 49 14.826L 42 30M 49 37C 47.13 37.047 45.322 36.324 43.999 35.001C 42.676 33.678 41.953 31.87 42 30L 56 30C 56.047 31.87 55.324 33.678 54.001 35.001C 52.678 36.324 50.87 37.047 49 37ZM 36.988 19.79L 51 14M 14.892 28.73L 36.988 19.79M 25 54L 43 54"></path></g></g></g><g id="g-root-tx_automati_m7ch601clgzr4-stroke" data-item-order="0" data-item-id="tx_automati_m7ch601clgzr4" data-item-class="Label Stroke SceneTarget Indexed" data-item-index="3" data-renderer-id="0" transform="translate(39, 279)"><g id="tx_automati_m7ch601clgzr4-stroke" fill="none" stroke-linecap="square" stroke-linejoin="miter" stroke-miterlimit="4" stroke="#484848" stroke-width="2"><g xmlns="http://www.w3.org/2000/svg"><path d="M 22.914 28.145L 27.862 14.973L 28.45 14.973L 33.414 28.145M 24.731 24.294L 31.59 24.294M 44.197 28.115L 44.196 18.767M 37.362 18.767L 37.362 24.821C 37.362 25.533 37.267 28.096 39.649 28.308C 41.74 28.493 43.013 27.653 43.715 26.47M 51.969 28.326C 50.56 28.465 49.702 27.732 49.702 26.387L 49.702 16.081M 51.852 18.642L 50.088 18.642M 47.592 18.642L 49.325 18.642M 63.677 23.457C 63.677 26.522 61.806 28.34 59.498 28.34C 57.19 28.34 55.319 26.522 55.319 23.457C 55.319 20.392 57.19 18.573 59.498 18.573C 61.806 18.573 63.677 20.392 63.677 23.457ZM 67.89 18.814L 67.89 28.162M 74.724 28.162L 74.713 21.47C 74.649 20.526 74.282 19.078 72.408 18.649C 70.468 18.205 68.988 19.248 68.252 20.595M 81.559 28.162L 81.559 22.108C 81.559 21.396 81.674 19.206 79.243 18.649C 77.214 18.184 75.68 19.347 74.979 20.783M 86.458 20.246C 86.822 19.28 88.238 18.567 89.578 18.567C 91.432 18.567 92.934 19.88 92.934 21.499L 92.94 22.957L 92.94 25.571C 92.94 26.614 92.915 27.353 93.217 28.278M 92.56 22.957L 89.832 22.957C 87.329 22.957 86.029 24.343 86.029 25.837C 86.029 27.331 87.267 28.341 88.883 28.341C 90.865 28.341 92.491 26.888 92.891 25.732M 100.739 28.326C 99.33 28.465 98.472 27.732 98.472 26.387L 98.472 16.081M 100.622 18.642L 98.858 18.642M 96.362 18.642L 98.095 18.642M 104.828 14.971L 104.852 14.971M 104.812 18.804L 104.812 28.145M 116.552 26.254C 116.18 27.649 114.612 28.339 113.143 28.339C 111.006 28.339 109.24 27.028 109.24 23.456C 109.24 19.884 111.109 18.573 113.247 18.573C 114.754 18.573 116.404 19.41 116.637 20.915M 127.071 28.117L 127.079 14.978L 128.048 14.978L 133.351 28.115L 133.667 28.115L 138.986 14.978L 139.956 14.978L 139.95 28.117M 145.168 20.246C 145.532 19.28 146.948 18.567 148.288 18.567C 150.142 18.567 151.644 19.88 151.644 21.499L 151.65 22.957L 151.65 25.571C 151.65 26.614 151.625 27.353 151.926 28.278M 151.27 22.957L 148.542 22.957C 146.039 22.957 144.739 24.343 144.739 25.837C 144.739 27.331 145.977 28.341 147.592 28.341C 149.575 28.341 151.201 26.888 151.601 25.732M 159.449 28.326C 158.04 28.465 157.182 27.732 157.182 26.387L 157.182 16.081M 159.332 18.642L 157.568 18.642M 155.072 18.642L 156.805 18.642M 170.172 26.254C 169.8 27.649 168.232 28.339 166.763 28.339C 164.626 28.339 162.86 27.028 162.86 23.456C 162.86 19.884 164.729 18.573 166.867 18.573C 168.374 18.573 170.024 19.41 170.257 20.915M 174.328 14.086L 174.328 28.128M 181.192 28.128L 181.192 22.074C 181.192 21.362 181.288 18.791 178.895 18.587C 177.141 18.439 175.456 19.547 174.669 20.928M 186.088 14.971L 186.112 14.971M 186.072 18.804L 186.072 28.145M 190.999 18.78L 190.999 28.128M 197.833 28.128L 197.833 22.074C 197.833 21.362 197.929 18.79 195.546 18.587C 193.788 18.437 192.099 19.562 191.323 20.956M 209.619 18.652L 209.619 28.654C 209.619 33.351 204.326 33.001 202.891 31.47M 209.285 26.573C 208.605 27.661 207.381 28.214 206.095 28.214C 203.914 28.214 202.157 26.903 202.157 23.331C 202.157 19.76 203.808 18.449 205.99 18.449C 207.258 18.449 208.563 19.129 209.285 20.502"></path></g></g></g><g id="g-root-2_hteeaw1clgyrx-stroke" data-item-order="0" data-item-id="2_hteeaw1clgyrx" data-item-class="Icon Stroke SceneTarget Indexed" data-item-index="3" data-renderer-id="0" transform="translate(255, 267)"><g id="2_hteeaw1clgyrx-stroke" fill="none" stroke-linecap="round" stroke-linejoin="round" stroke-miterlimit="1.5" stroke="#484848" stroke-width="2"><g xmlns="http://www.w3.org/2000/svg"><path d="M 29 34.002C 29 36.763 31.239 39.002 34 39.002C 36.761 39.002 39 36.763 39 34.002C 39 31.241 36.761 29.002 34 29.002C 31.239 29.002 29 31.241 29 34.002ZM 18 34.002C 18 42.839 25.163 50.002 34 50.002C 42.837 50.002 50 42.839 50 34.002C 50 25.165 42.837 18.002 34 18.002C 25.163 18.002 18 25.165 18 34.002ZM 34 18.002L 34 11.002M 45.314 22.688L 50.264 17.738M 50 34.002L 57 34.002M 45.314 45.316L 50.264 50.266M 34 50.002L 34 57.002M 22.686 45.316L 17.736 50.266M 18 34.002L 11 34.002M 22.686 22.688L 17.736 17.738"></path></g></g></g><g id="g-root-tx_reportin_hriz1k1clgzrj-stroke" data-item-order="0" data-item-id="tx_reportin_hriz1k1clgzrj" data-item-class="Label Stroke SceneTarget Indexed" data-item-index="2" data-renderer-id="0" transform="translate(147, 363)"><g id="tx_reportin_hriz1k1clgzrj-stroke" fill="none" stroke-linecap="square" stroke-linejoin="miter" stroke-miterlimit="4" stroke="#484848" stroke-width="2"><g xmlns="http://www.w3.org/2000/svg"><path d="M 16.455 28.133L 16.455 14.945L 21.251 14.93C 22.321 14.967 24.642 15.729 24.642 18.477C 24.642 21.224 22.321 22.061 21.251 22.137L 17.004 22.15M 24.869 28.249L 21.758 22.514M 35.677 27.218C 34.704 28.155 33.679 28.339 32.494 28.339C 30.425 28.339 28.561 27.028 28.561 23.456C 28.561 19.884 30.371 18.573 32.44 18.573C 34.508 18.573 36.112 19.63 36.112 23.201L 28.892 23.201M 40.153 18.774L 40.153 32.393M 40.519 20.124C 41.402 19.027 42.583 18.558 43.892 18.558C 46.073 18.558 47.652 19.904 47.652 23.476C 47.652 27.047 45.968 28.323 43.786 28.323C 42.515 28.323 41.229 27.783 40.519 26.719M 59.727 23.457C 59.727 26.522 57.856 28.34 55.548 28.34C 53.24 28.34 51.369 26.522 51.369 23.457C 51.369 20.392 53.24 18.573 55.548 18.573C 57.856 18.573 59.727 20.392 59.727 23.457ZM 67.525 18.609C 66.144 18.419 64.896 19.319 64.254 20.619M 63.899 18.773L 63.899 28.123M 73.999 28.326C 72.59 28.465 71.732 27.732 71.732 26.387L 71.732 16.081M 73.882 18.642L 72.118 18.642M 69.622 18.642L 71.355 18.642M 78.088 14.971L 78.112 14.971M 78.072 18.804L 78.072 28.145M 82.999 18.78L 82.999 28.128M 89.833 28.128L 89.833 22.074C 89.833 21.362 89.929 18.79 87.546 18.587C 85.788 18.437 84.099 19.562 83.323 20.956M 101.619 18.652L 101.619 28.654C 101.619 33.351 96.326 33.001 94.891 31.47M 101.285 26.573C 100.605 27.661 99.381 28.214 98.095 28.214C 95.914 28.214 94.157 26.903 94.157 23.331C 94.157 19.76 95.808 18.449 97.99 18.449C 99.258 18.449 100.563 19.129 101.285 20.502"></path></g></g></g><g id="g-root-1_qp1ejs1clgxz8-stroke" data-item-order="0" data-item-id="1_qp1ejs1clgxz8" data-item-class="Icon Stroke SceneTarget Indexed" data-item-index="2" data-renderer-id="0" transform="translate(255, 351)"><g id="1_qp1ejs1clgxz8-stroke" fill="none" stroke-linecap="round" stroke-linejoin="round" stroke-miterlimit="1.5" stroke="#484848" stroke-width="2"><g xmlns="http://www.w3.org/2000/svg"><path d="M 14.282 42.496C 14.282 45.534 16.744 47.996 19.782 47.996C 22.82 47.996 25.282 45.534 25.282 42.496C 25.282 39.458 22.82 36.996 19.782 36.996C 16.744 36.996 14.282 39.458 14.282 42.496M 28.542 57C 27.617 52.907 23.98 50 19.783 50C 15.586 50 11.949 52.907 11.024 57ZM 33.524 39C 34.678 33.895 39.119 30.203 44.348 30C 44.65 29.988 44.948 29.988 45.25 30C 50.817 29.783 55.747 33.566 56.976 39ZM 37.25 19C 37.25 23.418 40.832 27 45.25 27C 49.668 27 53.25 23.418 53.25 19C 53.25 14.582 49.668 11 45.25 11C 40.832 11 37.25 14.582 37.25 19M 52.704 17.934C 51.408 18.647 49.951 19.014 48.472 19C 44.754 19.008 41.349 16.919 39.672 13.6M 45.25 34L 45.25 37M 36.024 57L 40.024 57C 44.442 57 48.024 53.418 48.024 49L 48.024 44M 43.024 49L 48.024 44L 53.024 49M 15.024 31L 15.024 27C 15.024 22.582 18.606 19 23.024 19L 29.024 19M 24.024 24L 29.024 19L 24.024 14"></path></g></g></g><g id="g-root-tx_successf_qn5zag1clgyyu-stroke" data-item-order="0" data-item-id="tx_successf_qn5zag1clgyyu" data-item-class="Label Stroke SceneTarget Indexed Indexed_1" data-item-index="1" data-renderer-id="0" transform="translate(63, 447)"><g id="tx_successf_qn5zag1clgyyu-stroke" fill="none" stroke-linecap="square" stroke-linejoin="miter" stroke-miterlimit="4" stroke="#484848" stroke-width="2"><g xmlns="http://www.w3.org/2000/svg"><path d="M 30.856 17.457C 30.425 15.893 28.805 14.732 26.716 14.732C 24.268 14.732 22.567 15.931 22.567 17.754C 22.567 19.724 24.031 20.685 26.536 21.406C 28.733 22.045 30.97 22.813 30.97 25.288C 30.97 26.951 29.657 28.346 26.6 28.346C 24.128 28.346 22.547 27.106 22.183 25.483M 41.937 28.115L 41.936 18.767M 35.102 18.767L 35.102 24.821C 35.102 25.533 35.007 28.096 37.389 28.308C 39.48 28.493 40.753 27.653 41.455 26.47M 53.552 26.254C 53.18 27.649 51.612 28.339 50.143 28.339C 48.006 28.339 46.24 27.028 46.24 23.456C 46.24 19.884 48.109 18.573 50.247 18.573C 51.754 18.573 53.404 19.41 53.637 20.915M 64.532 26.254C 64.16 27.649 62.592 28.339 61.123 28.339C 58.986 28.339 57.22 27.028 57.22 23.456C 57.22 19.884 59.089 18.573 61.227 18.573C 62.734 18.573 64.384 19.41 64.617 20.915M 75.347 27.218C 74.374 28.155 73.349 28.339 72.164 28.339C 70.095 28.339 68.232 27.028 68.232 23.456C 68.232 19.884 70.041 18.573 72.11 18.573C 74.178 18.573 75.782 19.63 75.782 23.201L 68.562 23.201M 85.988 20.381C 85.692 19.404 84.538 18.584 82.928 18.584C 81.04 18.584 79.82 19.447 79.729 20.751C 79.624 22.246 80.858 22.822 82.788 23.339C 84.482 23.797 86.425 24.277 86.271 26.122C 86.172 27.31 85.195 28.346 82.838 28.346C 80.932 28.346 79.855 27.53 79.52 26.424M 96.798 20.381C 96.502 19.404 95.348 18.584 93.738 18.584C 91.85 18.584 90.63 19.447 90.539 20.751C 90.434 22.246 91.668 22.822 93.598 23.339C 95.292 23.797 97.235 24.277 97.081 26.122C 96.982 27.31 96.005 28.346 93.648 28.346C 91.742 28.346 90.665 27.53 90.33 26.424M 105.564 13.926C 105.396 13.908 105.115 13.907 104.987 13.907C 103.408 13.907 102.41 15.035 102.41 16.425L 102.41 28.129M 104.835 18.664L 102.746 18.664M 100.558 18.664L 102.084 18.664M 115.337 28.115L 115.336 18.767M 108.502 18.767L 108.502 24.821C 108.502 25.533 108.407 28.096 110.789 28.308C 112.88 28.493 114.153 27.653 114.855 26.47M 120.276 14.125L 120.276 28.126M 131.541 28.117L 131.549 14.978L 132.518 14.978L 137.821 28.115L 138.137 28.115L 143.456 14.978L 144.426 14.978L 144.42 28.117M 149.638 20.246C 150.002 19.28 151.418 18.567 152.758 18.567C 154.612 18.567 156.114 19.88 156.114 21.499L 156.12 22.957L 156.12 25.571C 156.12 26.614 156.095 27.353 156.397 28.278M 155.74 22.957L 153.012 22.957C 150.509 22.957 149.209 24.343 149.209 25.837C 149.209 27.331 150.447 28.341 152.063 28.341C 154.045 28.341 155.671 26.888 156.071 25.732M 163.919 28.326C 162.51 28.465 161.652 27.732 161.652 26.387L 161.652 16.081M 163.802 18.642L 162.038 18.642M 159.542 18.642L 161.275 18.642M 174.642 26.254C 174.27 27.649 172.702 28.339 171.233 28.339C 169.096 28.339 167.33 27.028 167.33 23.456C 167.33 19.884 169.199 18.573 171.337 18.573C 172.844 18.573 174.494 19.41 174.727 20.915M 178.798 14.086L 178.798 28.128M 185.662 28.128L 185.662 22.074C 185.662 21.362 185.758 18.791 183.365 18.587C 181.611 18.439 179.926 19.547 179.139 20.928"></path></g></g></g><g id="g-root-chec_hwirqg1clgzy8-stroke" data-item-order="0" data-item-id="chec_hwirqg1clgzy8" data-item-class="Icon Stroke SceneTarget Indexed Indexed_1" data-item-index="1" data-renderer-id="0" transform="translate(255, 435)"><g id="chec_hwirqg1clgzy8-stroke" fill="none" stroke-linecap="round" stroke-linejoin="round" stroke-miterlimit="1.5" stroke="#484848" stroke-width="2"><g xmlns="http://www.w3.org/2000/svg"><path d="M 11.714 39.314L 21.074 51.349C 21.714 52.18 22.7 52.673 23.749 52.686C 24.78 52.698 25.763 52.244 26.423 51.451L 56.286 15.314"></path></g></g></g></g></svg>