<?xml version="1.0" encoding="utf-8" standalone="yes"?>
<!DOCTYPE svg PUBLIC "-//W3C//DTD SVG 1.1//EN" "http://www.w3.org/Graphics/SVG/1.1/DTD/svg11.dtd">
<svg width="710" height="278" viewBox="0 0 710 278" style="fill:none;stroke:none;fill-rule:evenodd;clip-rule:evenodd;stroke-linecap:round;stroke-linejoin:round;stroke-miterlimit:1.5;" version="1.1" xmlns="http://www.w3.org/2000/svg" xmlns:xlink="http://www.w3.org/1999/xlink"><g id="blend" style="mix-blend-mode:multiply"><g id="g-root-3.cu_sy_90w7771lhf7k7-fill" data-item-order="-92156" data-item-id="3.cu_sy_90w7771lhf7k7" data-item-class="ScenePart Indexed Fill Stroke ColorFillBlack" data-item-index="3" data-renderer-id="0" transform="translate(339, 27)"><g id="3.cu_sy_90w7771lhf7k7-fill" stroke="none" fill="none"><g xmlns="http://www.w3.org/2000/svg"><path d="M 10 226.009C 39.147 204.116 58 169.26 58 130C 58 90.74 39.147 55.884 10 33.991C 30.056 18.927 54.985 10 82 10C 148.274 10 202 63.726 202 130C 202 196.274 148.274 250 82 250C 54.985 250 30.056 241.073 10 226.009Z"></path></g></g></g><g id="g-root-1.cu_sy_dgppbn1lhf6rx-fill" data-item-order="-92154" data-item-id="1.cu_sy_dgppbn1lhf6rx" data-item-class="ScenePart Indexed Indexed_1 Fill Stroke ColorFillBlack" data-item-index="1" data-renderer-id="0" transform="translate(147, 27)"><g id="1.cu_sy_dgppbn1lhf6rx-fill" stroke="none" fill="none"><g xmlns="http://www.w3.org/2000/svg"><path d="M 202 33.991C 172.853 55.884 154 90.74 154 130C 154 169.26 172.853 204.116 202 226.009C 181.944 241.073 157.015 250 130 250C 63.726 250 10 196.274 10 130C 10 63.726 63.726 10 130 10C 157.015 10 181.944 18.927 202 33.991Z"></path></g></g></g><g id="g-root-2.cu_sy_90w7771lhf7k6-fill" data-item-order="-92152" data-item-id="2.cu_sy_90w7771lhf7k6" data-item-class="ScenePart Indexed Fill Stroke ColorFillBlack" data-item-index="2" data-renderer-id="0" transform="translate(291, 51)"><g id="2.cu_sy_90w7771lhf7k6-fill" stroke="none" fill="none"><g xmlns="http://www.w3.org/2000/svg"><path d="M 58 202.018C 87.147 180.125 106 145.268 106 106.009C 106 66.749 87.147 31.893 58 10C 28.853 31.893 10 66.749 10 106.009C 10 145.268 28.853 180.125 58 202.018Z"></path></g></g></g><g id="g-root-tx_secureda_1hfppir1lhf7d7-fill" data-item-order="0" data-item-id="tx_secureda_1hfppir1lhf7d7" data-item-class="Label Stroke SceneTarget Indexed ColorStrokeGray" data-item-index="2" data-renderer-id="0" transform="translate(237, -9)"></g><g id="g-root-tx_openport_1ur67w31lhf5s9-fill" data-item-order="0" data-item-id="tx_openport_1ur67w31lhf5s9" data-item-class="Label Stroke SceneTarget Indexed Indexed_1 ColorStrokeGray" data-item-index="1" data-renderer-id="0" transform="translate(-9, 135)"></g><g id="g-root-1_1ltnsdv1lhgmiv-fill" data-item-order="0" data-item-id="1_1ltnsdv1lhgmiv" data-item-class="Icon Stroke SceneTarget Indexed Indexed_1 InsideFill InsideColorFill InsideBlackFill" data-item-index="1" data-renderer-id="0" transform="translate(207, 123)"></g><g id="g-root-lock_1hhl4s31lhgkjy-fill" data-item-order="0" data-item-id="lock_1hhl4s31lhgkjy" data-item-class="Icon Stroke SceneTarget Indexed InsideFill InsideColorFill InsideBlackFill" data-item-index="2" data-renderer-id="0" transform="translate(315, 123)"></g><g id="g-root-lock_18itr3n1lhgky0-fill" data-item-order="0" data-item-id="lock_18itr3n1lhgky0" data-item-class="Icon Stroke SceneTarget Indexed InsideFill InsideColorFill InsideBlackFill" data-item-index="3" data-renderer-id="0" transform="translate(423, 123)"></g><g id="g-root-tx_sslencry_4l2p2r1lhf8cg-fill" data-item-order="0" data-item-id="tx_sslencry_4l2p2r1lhf8cg" data-item-class="Label Stroke SceneTarget Indexed ColorStrokeGray" data-item-index="3" data-renderer-id="0" transform="translate(543, 135)"></g><g id="g-root-3.cu_sy_90w7771lhf7k7-stroke" data-item-order="-92156" data-item-id="3.cu_sy_90w7771lhf7k7" data-item-class="ScenePart Indexed Fill Stroke ColorFillBlack" data-item-index="3" data-renderer-id="0" transform="translate(339, 27)"><g id="3.cu_sy_90w7771lhf7k7-stroke" fill="none" stroke-linecap="round" stroke-linejoin="round" stroke-miterlimit="1.5" stroke="#44E095" stroke-width="2"><g xmlns="http://www.w3.org/2000/svg"><path d="M 10 226.009C 39.147 204.116 58 169.26 58 130C 58 90.74 39.147 55.884 10 33.991C 30.056 18.927 54.985 10 82 10C 148.274 10 202 63.726 202 130C 202 196.274 148.274 250 82 250C 54.985 250 30.056 241.073 10 226.009Z"></path></g></g></g><g id="g-root-1.cu_sy_dgppbn1lhf6rx-stroke" data-item-order="-92154" data-item-id="1.cu_sy_dgppbn1lhf6rx" data-item-class="ScenePart Indexed Indexed_1 Fill Stroke ColorFillBlack" data-item-index="1" data-renderer-id="0" transform="translate(147, 27)"><g id="1.cu_sy_dgppbn1lhf6rx-stroke" fill="none" stroke-linecap="round" stroke-linejoin="round" stroke-miterlimit="1.5" stroke="#4F92FF" stroke-width="2"><g xmlns="http://www.w3.org/2000/svg"><path d="M 202 33.991C 172.853 55.884 154 90.74 154 130C 154 169.26 172.853 204.116 202 226.009C 181.944 241.073 157.015 250 130 250C 63.726 250 10 196.274 10 130C 10 63.726 63.726 10 130 10C 157.015 10 181.944 18.927 202 33.991Z"></path></g></g></g><g id="g-root-2.cu_sy_90w7771lhf7k6-stroke" data-item-order="-92152" data-item-id="2.cu_sy_90w7771lhf7k6" data-item-class="ScenePart Indexed Fill Stroke ColorFillBlack" data-item-index="2" data-renderer-id="0" transform="translate(291, 51)"><g id="2.cu_sy_90w7771lhf7k6-stroke" fill="none" stroke-linecap="round" stroke-linejoin="round" stroke-miterlimit="1.5" stroke="#1AC6FF" stroke-width="2"><g xmlns="http://www.w3.org/2000/svg"><path d="M 58 202.018C 87.147 180.125 106 145.268 106 106.009C 106 66.749 87.147 31.893 58 10C 28.853 31.893 10 66.749 10 106.009C 10 145.268 28.853 180.125 58 202.018Z"></path></g></g></g><g id="g-root-tx_secureda_1hfppir1lhf7d7-stroke" data-item-order="0" data-item-id="tx_secureda_1hfppir1lhf7d7" data-item-class="Label Stroke SceneTarget Indexed ColorStrokeGray" data-item-index="2" data-renderer-id="0" transform="translate(237, -9)"><g id="tx_secureda_1hfppir1lhf7d7-stroke" fill="none" stroke-linecap="square" stroke-linejoin="miter" stroke-miterlimit="4" stroke="#CCCCCC" stroke-width="2"><g xmlns="http://www.w3.org/2000/svg"><path d="M 23.196 17.457C 22.765 15.893 21.145 14.732 19.056 14.732C 16.608 14.732 14.907 15.931 14.907 17.754C 14.907 19.724 16.371 20.685 18.875 21.406C 21.072 22.045 23.31 22.813 23.31 25.288C 23.31 26.951 21.997 28.346 18.94 28.346C 16.468 28.346 14.887 27.106 14.523 25.483M 34.117 27.218C 33.144 28.155 32.119 28.339 30.934 28.339C 28.865 28.339 27.001 27.028 27.001 23.456C 27.001 19.884 28.811 18.573 30.88 18.573C 32.948 18.573 34.552 19.63 34.552 23.201L 27.332 23.201M 45.412 26.254C 45.04 27.649 43.472 28.339 42.003 28.339C 39.866 28.339 38.1 27.028 38.1 23.456C 38.1 19.884 39.969 18.573 42.107 18.573C 43.614 18.573 45.264 19.41 45.497 20.915M 56.387 28.115L 56.386 18.767M 49.552 18.767L 49.552 24.821C 49.552 25.533 49.457 28.096 51.839 28.308C 53.93 28.493 55.203 27.653 55.905 26.47M 64.795 18.609C 63.414 18.419 62.166 19.319 61.524 20.619M 61.169 18.773L 61.169 28.123M 74.947 27.218C 73.974 28.155 72.949 28.339 71.764 28.339C 69.695 28.339 67.831 27.028 67.831 23.456C 67.831 19.884 69.641 18.573 71.71 18.573C 73.778 18.573 75.382 19.63 75.382 23.201L 68.162 23.201M 89.787 28.18L 85.778 28.183L 85.778 14.948C 86.725 14.948 88.004 14.946 89.404 14.946C 90.857 14.91 94.637 16.173 94.637 21.511C 94.637 26.848 91.112 28.18 89.787 28.18ZM 99.328 20.246C 99.692 19.28 101.108 18.567 102.448 18.567C 104.302 18.567 105.804 19.88 105.804 21.499L 105.81 22.957L 105.81 25.571C 105.81 26.614 105.785 27.353 106.086 28.278M 105.43 22.957L 102.702 22.957C 100.199 22.957 98.899 24.343 98.899 25.837C 98.899 27.331 100.137 28.341 101.753 28.341C 103.735 28.341 105.361 26.888 105.761 25.732M 113.609 28.326C 112.2 28.465 111.342 27.732 111.342 26.387L 111.342 16.081M 113.492 18.642L 111.728 18.642M 109.232 18.642L 110.965 18.642M 117.638 20.246C 118.002 19.28 119.418 18.567 120.758 18.567C 122.612 18.567 124.114 19.88 124.114 21.499L 124.12 22.957L 124.12 25.571C 124.12 26.614 124.095 27.353 124.396 28.278M 123.74 22.957L 121.012 22.957C 118.509 22.957 117.209 24.343 117.209 25.837C 117.209 27.331 118.447 28.341 120.063 28.341C 122.045 28.341 123.671 26.888 124.071 25.732M 143.743 14.945C 140.48 14.945 137.217 14.95 133.954 14.95M 138.84 28.124L 138.84 15.456M 151.105 18.609C 149.724 18.419 148.476 19.319 147.834 20.619M 147.479 18.773L 147.479 28.123M 154.728 20.246C 155.092 19.28 156.508 18.567 157.848 18.567C 159.702 18.567 161.204 19.88 161.204 21.499L 161.21 22.957L 161.21 25.571C 161.21 26.614 161.185 27.353 161.486 28.278M 160.83 22.957L 158.102 22.957C 155.599 22.957 154.299 24.343 154.299 25.837C 154.299 27.331 155.537 28.341 157.152 28.341C 159.135 28.341 160.761 26.888 161.161 25.732M 166.039 18.78L 166.039 28.128M 172.873 28.128L 172.873 22.074C 172.873 21.362 172.969 18.79 170.586 18.587C 168.828 18.437 167.139 19.562 166.363 20.956M 183.808 20.381C 183.512 19.404 182.358 18.584 180.748 18.584C 178.86 18.584 177.64 19.447 177.549 20.751C 177.444 22.246 178.678 22.822 180.608 23.339C 182.302 23.797 184.245 24.277 184.091 26.122C 183.992 27.31 183.015 28.346 180.658 28.346C 178.752 28.346 177.675 27.53 177.34 26.424M 192.574 13.926C 192.406 13.908 192.125 13.907 191.997 13.907C 190.418 13.907 189.42 15.035 189.42 16.425L 189.42 28.129M 191.845 18.664L 189.756 18.664M 187.568 18.664L 189.094 18.664M 202.187 27.218C 201.214 28.155 200.189 28.339 199.004 28.339C 196.935 28.339 195.072 27.028 195.072 23.456C 195.072 19.884 196.881 18.573 198.95 18.573C 201.018 18.573 202.622 19.63 202.622 23.201L 195.402 23.201M 210.275 18.609C 208.894 18.419 207.646 19.319 207.004 20.619M 206.649 18.773L 206.649 28.123"></path></g></g></g><g id="g-root-tx_openport_1ur67w31lhf5s9-stroke" data-item-order="0" data-item-id="tx_openport_1ur67w31lhf5s9" data-item-class="Label Stroke SceneTarget Indexed Indexed_1 ColorStrokeGray" data-item-index="1" data-renderer-id="0" transform="translate(-9, 135)"><g id="tx_openport_1ur67w31lhf5s9-stroke" fill="none" stroke-linecap="square" stroke-linejoin="miter" stroke-miterlimit="4" stroke="#CCCCCC" stroke-width="2"><g xmlns="http://www.w3.org/2000/svg"><path d="M 18.603 21.438C 18.603 26.143 20.65 28.326 23.658 28.326C 26.667 28.326 28.714 26.143 28.714 21.438C 28.714 16.733 26.497 14.721 23.658 14.721C 20.82 14.721 18.603 16.733 18.603 21.438ZM 33.243 18.774L 33.243 32.393M 33.609 20.124C 34.492 19.027 35.673 18.558 36.982 18.558C 39.163 18.558 40.742 19.904 40.742 23.476C 40.742 27.047 39.058 28.323 36.876 28.323C 35.605 28.323 34.319 27.783 33.609 26.719M 51.667 27.218C 50.694 28.155 49.669 28.339 48.484 28.339C 46.415 28.339 44.551 27.028 44.551 23.456C 44.551 19.884 46.361 18.573 48.43 18.573C 50.498 18.573 52.102 19.63 52.102 23.201L 44.882 23.201M 56.149 18.78L 56.149 28.128M 62.983 28.128L 62.983 22.074C 62.983 21.362 63.079 18.79 60.696 18.587C 58.938 18.437 57.249 19.562 56.473 20.956M 74.121 28.131L 74.121 14.944L 79.4 14.928C 80.498 14.967 82.883 15.749 82.883 18.572C 82.883 21.394 80.498 22.254 79.4 22.331L 74.649 22.345M 94.797 23.457C 94.797 26.522 92.926 28.34 90.618 28.34C 88.31 28.34 86.439 26.522 86.439 23.457C 86.439 20.392 88.31 18.573 90.618 18.573C 92.926 18.573 94.797 20.392 94.797 23.457ZM 102.595 18.609C 101.214 18.419 99.966 19.319 99.324 20.619M 98.969 18.773L 98.969 28.123M 109.069 28.326C 107.66 28.465 106.802 27.732 106.802 26.387L 106.802 16.081M 108.952 18.642L 107.188 18.642M 104.692 18.642L 106.425 18.642M 127.06 24.76L 125.234 24.76M 124.902 28.132L 124.902 14.941L 124.246 14.941L 118.012 24.592L 118.012 24.76L 124.56 24.76M 138.85 24.76L 137.024 24.76M 136.692 28.132L 136.692 14.941L 136.036 14.941L 129.802 24.592L 129.802 24.76L 136.35 24.76M 142.274 17.187C 142.535 15.798 144.087 14.741 145.813 14.741C 148.05 14.741 149.511 16.061 149.511 17.895C 149.511 19.816 147.838 21.333 145.813 21.333L 145.004 21.333L 145.004 21.423L 145.864 21.432C 147.993 21.432 149.752 23.009 149.752 25.022C 149.752 26.943 148.216 28.339 145.864 28.339C 144.05 28.339 142.417 27.232 142.143 25.776"></path></g></g></g><g id="g-root-1_1ltnsdv1lhgmiv-stroke" data-item-order="0" data-item-id="1_1ltnsdv1lhgmiv" data-item-class="Icon Stroke SceneTarget Indexed Indexed_1 InsideFill InsideColorFill InsideBlackFill" data-item-index="1" data-renderer-id="0" transform="translate(207, 123)"><g id="1_1ltnsdv1lhgmiv-stroke" fill="none" stroke-linecap="round" stroke-linejoin="round" stroke-miterlimit="1.5" stroke="#4F92FF" stroke-width="2"><g xmlns="http://www.w3.org/2000/svg"><path d="M 57 55C 57 56.105 56.105 57 55 57L 41 57C 39.895 57 39 56.105 39 55L 39 43C 39 41.895 39.895 41 41 41L 55 41C 56.105 41 57 41.895 57 43ZM 45.5 49.126C 45.5 50.507 46.619 51.626 48 51.626C 49.381 51.626 50.5 50.507 50.5 49.126C 50.5 47.745 49.381 46.626 48 46.626C 46.619 46.626 45.5 47.745 45.5 49.126ZM 53 38C 53 35.239 50.761 33 48 33C 45.239 33 43 35.239 43 38L 43 41L 53 41ZM 21 51L 33 51M 27.002 41L 27.002 51M 16.5 50C 16.224 50 16 50.224 16 50.5C 16 50.776 16.224 51 16.5 51C 16.776 51 17 50.776 17 50.5C 17 50.224 16.776 50 16.5 50L 16.5 50M 11.5 50C 11.224 50 11 50.224 11 50.5C 11 50.776 11.224 51 11.5 51C 11.776 51 12 50.776 12 50.5C 12 50.224 11.776 50 11.5 50L 11.5 50M 18.5 35.5C 18.224 35.5 18 35.724 18 36C 18 36.276 18.224 36.5 18.5 36.5C 18.776 36.5 19 36.276 19 36C 19 35.724 18.776 35.5 18.5 35.5L 18.5 35.5M 23.5 35.5C 23.224 35.5 23 35.724 23 36C 23 36.276 23.224 36.5 23.5 36.5C 23.776 36.5 24 36.276 24 36C 24 35.724 23.776 35.5 23.5 35.5L 23.5 35.5M 35 31L 16 31C 13.239 31 11 33.239 11 36C 11 38.761 13.239 41 16 41L 35 41M 18.5 15.5C 18.224 15.5 18 15.724 18 16C 18 16.276 18.224 16.5 18.5 16.5C 18.776 16.5 19 16.276 19 16C 19 15.724 18.776 15.5 18.5 15.5L 18.5 15.5M 23.5 15.5C 23.224 15.5 23 15.724 23 16C 23 16.276 23.224 16.5 23.5 16.5C 23.776 16.5 24 16.276 24 16C 24 15.724 23.776 15.5 23.5 15.5L 23.5 15.5M 45 16C 45 13.239 42.761 11 40 11L 16 11C 13.239 11 11 13.239 11 16C 11 18.761 13.239 21 16 21L 40 21C 42.761 21 45 18.761 45 16ZM 18.5 25.5C 18.224 25.5 18 25.724 18 26C 18 26.276 18.224 26.5 18.5 26.5C 18.776 26.5 19 26.276 19 26C 19 25.724 18.776 25.5 18.5 25.5L 18.5 25.5M 23.5 25.5C 23.224 25.5 23 25.724 23 26C 23 26.276 23.224 26.5 23.5 26.5C 23.776 26.5 24 26.276 24 26C 24 25.724 23.776 25.5 23.5 25.5L 23.5 25.5M 45 26C 45 23.239 42.761 21 40 21L 16 21C 13.239 21 11 23.239 11 26C 11 28.761 13.239 31 16 31L 40 31C 42.761 31 45 28.761 45 26Z"></path></g></g></g><g id="g-root-lock_1hhl4s31lhgkjy-stroke" data-item-order="0" data-item-id="lock_1hhl4s31lhgkjy" data-item-class="Icon Stroke SceneTarget Indexed InsideFill InsideColorFill InsideBlackFill" data-item-index="2" data-renderer-id="0" transform="translate(315, 123)"><g id="lock_1hhl4s31lhgkjy-stroke" fill="none" stroke-linecap="round" stroke-linejoin="round" stroke-miterlimit="1.5" stroke="#1AC6FF" stroke-width="2"><g xmlns="http://www.w3.org/2000/svg"><path d="M 37.429 22L 54.571 22C 54.571 22 56.286 22 56.286 23.714L 56.286 35.714C 56.286 35.714 56.286 37.429 54.571 37.429L 37.429 37.429C 37.429 37.429 35.714 37.429 35.714 35.714L 35.714 23.714C 35.714 23.714 35.714 22 37.429 22M 39.143 22L 39.143 18.571C 39.143 14.784 42.213 11.714 46 11.714C 49.787 11.714 52.857 14.784 52.857 18.571L 52.857 22M 11.714 39.143L 22 39.143C 26.734 39.143 30.571 42.98 30.571 47.714L 30.571 47.714M 20.286 47.714L 37.429 47.714C 41.216 47.714 44.286 50.784 44.286 54.571L 44.286 54.571C 44.286 55.518 43.518 56.286 42.571 56.286L 11.714 56.286"></path></g></g></g><g id="g-root-lock_18itr3n1lhgky0-stroke" data-item-order="0" data-item-id="lock_18itr3n1lhgky0" data-item-class="Icon Stroke SceneTarget Indexed InsideFill InsideColorFill InsideBlackFill" data-item-index="3" data-renderer-id="0" transform="translate(423, 123)"><g id="lock_18itr3n1lhgky0-stroke" fill="none" stroke-linecap="round" stroke-linejoin="round" stroke-miterlimit="1.5" stroke="#44E095" stroke-width="2"><g xmlns="http://www.w3.org/2000/svg"><path d="M 51 37.812C 54.14 36.359 56.108 33.172 56 29.714C 55.962 27.155 54.885 24.722 53.016 22.973C 51.147 21.225 48.648 20.312 46.092 20.444C 43.813 15.858 39.121 12.97 34 13C 27.022 12.906 21.175 18.257 20.65 25.216C 18.566 24.758 16.387 25.258 14.712 26.578C 13.037 27.899 12.041 29.901 12 32.034C 11.833 35.152 13.95 37.932 17 38.6M 44 53C 44 54.105 43.105 55 42 55L 28 55C 26.895 55 26 54.105 26 53L 26 41C 26 39.895 26.895 39 28 39L 42 39C 43.105 39 44 39.895 44 41ZM 32.5 47.126C 32.5 48.507 33.619 49.626 35 49.626C 36.381 49.626 37.5 48.507 37.5 47.126C 37.5 45.745 36.381 44.626 35 44.626C 33.619 44.626 32.5 45.745 32.5 47.126ZM 40 36C 40 33.239 37.761 31 35 31C 32.239 31 30 33.239 30 36L 30 39L 40 39Z"></path></g></g></g><g id="g-root-tx_sslencry_4l2p2r1lhf8cg-stroke" data-item-order="0" data-item-id="tx_sslencry_4l2p2r1lhf8cg" data-item-class="Label Stroke SceneTarget Indexed ColorStrokeGray" data-item-index="3" data-renderer-id="0" transform="translate(543, 135)"><g id="tx_sslencry_4l2p2r1lhf8cg-stroke" fill="none" stroke-linecap="square" stroke-linejoin="miter" stroke-miterlimit="4" stroke="#CCCCCC" stroke-width="2"><g xmlns="http://www.w3.org/2000/svg"><path d="M 22.596 17.457C 22.165 15.893 20.545 14.732 18.456 14.732C 16.008 14.732 14.307 15.931 14.307 17.754C 14.307 19.724 15.771 20.685 18.276 21.406C 20.472 22.045 22.709 22.813 22.709 25.288C 22.709 26.951 21.397 28.346 18.34 28.346C 15.868 28.346 14.287 27.106 13.923 25.483M 35.086 17.457C 34.655 15.893 33.035 14.732 30.946 14.732C 28.498 14.732 26.797 15.931 26.797 17.754C 26.797 19.724 28.261 20.685 30.765 21.406C 32.963 22.045 35.2 22.813 35.2 25.288C 35.2 26.951 33.887 28.346 30.83 28.346C 28.358 28.346 26.777 27.106 26.413 25.483M 46.887 28.145L 39.738 28.145L 39.696 21.3L 39.696 14.938M 64.577 28.137L 57.014 28.142L 57.014 14.95C 57.962 14.95 63.136 14.95 64.536 14.95M 63.524 21.297L 57.478 21.297M 68.619 18.78L 68.619 28.128M 75.453 28.128L 75.453 22.074C 75.453 21.362 75.549 18.79 73.166 18.587C 71.408 18.437 69.719 19.562 68.943 20.956M 87.042 26.254C 86.67 27.649 85.102 28.339 83.633 28.339C 81.496 28.339 79.73 27.028 79.73 23.456C 79.73 19.884 81.599 18.573 83.737 18.573C 85.244 18.573 86.894 19.41 87.127 20.915M 94.815 18.609C 93.434 18.419 92.186 19.319 91.544 20.619M 91.189 18.773L 91.189 28.123M 97.669 32.437C 99.223 32.683 100.145 31.233 100.502 30.286L 104.353 18.691M 97.493 18.691L 100.834 28.1M 108.273 18.774L 108.273 32.393M 108.639 20.124C 109.522 19.027 110.703 18.558 112.012 18.558C 114.193 18.558 115.772 19.904 115.772 23.476C 115.772 27.047 114.088 28.323 111.906 28.323C 110.635 28.323 109.349 27.783 108.639 26.719M 123.019 28.326C 121.61 28.465 120.752 27.732 120.752 26.387L 120.752 16.081M 122.902 18.642L 121.138 18.642M 118.642 18.642L 120.375 18.642M 127.108 14.971L 127.132 14.971M 127.092 18.804L 127.092 28.145M 139.817 23.457C 139.817 26.522 137.946 28.34 135.638 28.34C 133.33 28.34 131.459 26.522 131.459 23.457C 131.459 20.392 133.33 18.573 135.638 18.573C 137.946 18.573 139.817 20.392 139.817 23.457ZM 144.009 18.78L 144.009 28.128M 150.843 28.128L 150.843 22.074C 150.843 21.362 150.939 18.79 148.556 18.587C 146.798 18.437 145.109 19.562 144.333 20.956"></path></g></g></g></g></svg>