<?xml version="1.0" encoding="utf-8"?>
<!-- Generator: Adobe Illustrator 25.0.1, SVG Export Plug-In . SVG Version: 6.00 Build 0)  -->
<svg version="1.1" id="Layer_1" xmlns="http://www.w3.org/2000/svg" xmlns:xlink="http://www.w3.org/1999/xlink" x="0px" y="0px"
	 viewBox="0 0 391 391" style="enable-background:new 0 0 391 391;" xml:space="preserve">
	 <style type="text/css">
		.bg-color{fill:#35b4ac;}
	</style>
<g class="bg-color">
	<path d="M301.9,4c7.4,1.7,15,2.7,22.1,5.2c54,18.8,78.4,79.2,53.1,131.2c-5.6,11.6-12.8,22-21.8,31.2
		c-13.8,14.1-27.7,28.1-41.6,42.1c-5.1,5.1-11.5,6.3-17.5,3.4c-5.6-2.6-9-8.4-8.6-14.6c0.3-4.2,2.3-7.5,5.2-10.5
		c12.8-12.8,25.6-25.6,38.3-38.5c12.5-12.7,21.6-27.4,25-45.2c6.6-34.1-19.1-69.5-53.4-73.6c-21.6-2.6-39.9,4.9-56.4,18
		c-2.5,2-5,4.2-7.3,6.5c-18.7,18.7-37.5,37.4-56.1,56.2c-11.4,11.6-19.8,25.1-23.2,41.2c-5.7,26.8,5.3,52.5,28.5,67.2
		c1.1,0.7,2.1,1.3,3.2,2c7.1,4.7,9.2,13.3,5,20.3c-4.3,7.1-13.2,9.5-20.5,5.2c-19.3-11.4-33.8-27.3-41.6-48.5
		c-12.3-33.5-5.6-64.3,14.3-92.9c2.7-3.9,5.6-7.7,8.9-11.1c21.6-21.8,43-43.9,65.1-65.2c17.1-16.4,37.6-26.5,61.4-29.1
		c0.5,0,0.9-0.4,1.3-0.6C290.9,4,296.4,4,301.9,4z"/>
	<path d="M4,286.8c1.4-6.6,2.3-13.2,4.2-19.7c5.1-17.7,14.6-33.1,27.4-46.3c13.9-14.4,28-28.5,42.2-42.6c4.9-5,11.3-6,17.2-3.3
		c5.6,2.6,9,8.4,8.6,14.5c-0.3,4.3-2.4,7.8-5.4,10.8c-13.2,13.3-26.5,26.5-39.6,39.9c-11.4,11.8-19.8,25.4-23.1,41.7
		c-9.5,48.3,35.4,88,82.1,72.7c12.8-4.2,24-11.2,33.5-20.6c19.5-19.3,39-38.7,58.2-58.3c12.3-12.6,21-27.4,23.1-45.2
		c3.2-26.9-7.7-47.3-29.6-62.3c-1-0.7-2.1-1.3-3.2-2c-6.9-4.7-8.9-13.4-4.6-20.4c4.2-6.8,13-9.3,20-5.1
		c25.1,14.8,41.4,36.2,46.5,65.2c5.5,31.1-3.6,58.6-23.5,82.2c-12.8,15.2-27.5,28.9-41.6,43.1c-10.5,10.6-21,21.4-32.3,31.2
		c-16.4,14.2-35.5,23-57.3,25.2c-0.6,0.1-1.2,0.4-1.8,0.6c-5.5,0-11,0-16.5,0c-0.7-0.2-1.4-0.6-2.1-0.7
		c-38.5-4.8-70.2-32.8-79.8-70.6c-1.1-4.4-1.8-9-2.7-13.5C4,297.8,4,292.2,4,286.8z"/>
</g>
</svg>
