<?xml version="1.0" encoding="utf-8" standalone="yes"?>
<!DOCTYPE svg PUBLIC "-//W3C//DTD SVG 1.1//EN" "http://www.w3.org/Graphics/SVG/1.1/DTD/svg11.dtd">
<svg width="818" height="74" viewBox="0 0 818 74" style="fill:none;stroke:none;fill-rule:evenodd;clip-rule:evenodd;stroke-linecap:round;stroke-linejoin:round;stroke-miterlimit:1.5;" version="1.1" xmlns="http://www.w3.org/2000/svg" xmlns:xlink="http://www.w3.org/1999/xlink"><g id="blend" style="mix-blend-mode:multiply"><g id="g-root-ro_hssg431hlkw0a-fill" data-item-order="-13824" data-item-id="ro_hssg431hlkw0a" data-item-class="Shape Stroke Fill" data-item-index="none" data-renderer-id="0" transform="translate(-9, -9)"><g id="ro_hssg431hlkw0a-fill" stroke="none" fill="#606060"><g xmlns="http://www.w3.org/2000/svg"><path d="M 22 10L 190 10C 190 10 202 10 202 22L 202 70C 202 70 202 82 190 82L 22 82C 22 82 10 82 10 70L 10 22C 10 22 10 10 22 10"></path></g></g></g><g id="g-root-ro_qtf91v1hlnnrb-fill" data-item-order="-12096" data-item-id="ro_qtf91v1hlnnrb" data-item-class="Shape Stroke Fill" data-item-index="none" data-renderer-id="0" transform="translate(239, -9)"><g id="ro_qtf91v1hlnnrb-fill" stroke="none" fill="#224754"><g xmlns="http://www.w3.org/2000/svg"><path d="M 22 10L 166 10C 166 10 178 10 178 22L 178 70C 178 70 178 82 166 82L 22 82C 22 82 10 82 10 70L 10 22C 10 22 10 10 22 10"></path></g></g></g><g id="g-root-ro_18gc13n1hl5gqs-fill" data-item-order="-11232" data-item-id="ro_18gc13n1hl5gqs" data-item-class="Shape Stroke Fill" data-item-index="none" data-renderer-id="0" transform="translate(651, -9)"><g id="ro_18gc13n1hl5gqs-fill" stroke="none" fill="#224754"><g xmlns="http://www.w3.org/2000/svg"><path d="M 22 10L 154 10C 154 10 166 10 166 22L 166 70C 166 70 166 82 154 82L 22 82C 22 82 10 82 10 70L 10 22C 10 22 10 10 22 10"></path></g></g></g><g id="g-root-ro_147dqxf1hl41s0-fill" data-item-order="-9504" data-item-id="ro_147dqxf1hl41s0" data-item-class="Shape Stroke Fill" data-item-index="none" data-renderer-id="0" transform="translate(463, -9)"><g id="ro_147dqxf1hl41s0-fill" stroke="none" fill="#224754"><g xmlns="http://www.w3.org/2000/svg"><path d="M 22 10L 130 10C 130 10 142 10 142 22L 142 70C 142 70 142 82 130 82L 22 82C 22 82 10 82 10 70L 10 22C 10 22 10 10 22 10"></path></g></g></g><g id="g-root-page_qofgcz1hlkv7l-fill" data-item-order="0" data-item-id="page_qofgcz1hlkv7l" data-item-class="Icon Stroke" data-item-index="none" data-renderer-id="0" transform="translate(3, 12)"></g><g id="g-root-tx_selector_v48yhf1hlkufc-fill" data-item-order="0" data-item-id="tx_selector_v48yhf1hlkufc" data-item-class="Label Stroke" data-item-index="none" data-renderer-id="0" transform="translate(39, 3)"></g><g id="g-root-penc_v8ma371hlnq4u-fill" data-item-order="0" data-item-id="penc_v8ma371hlnq4u" data-item-class="Icon Stroke" data-item-index="none" data-renderer-id="0" transform="translate(251, 12)"></g><g id="g-root-tx_customiz_v8ma371hlnq4t-fill" data-item-order="0" data-item-id="tx_customiz_v8ma371hlnq4t" data-item-class="Label Stroke" data-item-index="none" data-renderer-id="0" transform="translate(287, 3)"></g><g id="g-root-chec_zrk8sz1hl41sf-fill" data-item-order="0" data-item-id="chec_zrk8sz1hl41sf" data-item-class="Icon Stroke" data-item-index="none" data-renderer-id="0" transform="translate(475, 12)"></g><g id="g-root-tx_applylay_18n791v1hl40zq-fill" data-item-order="0" data-item-id="tx_applylay_18n791v1hl40zq" data-item-class="Label Stroke" data-item-index="none" data-renderer-id="0" transform="translate(511, 3)"></g><g id="g-root-sear_18gc13n1hl5gqr-fill" data-item-order="0" data-item-id="sear_18gc13n1hl5gqr" data-item-class="Icon Stroke" data-item-index="none" data-renderer-id="0" transform="translate(663, 12)"></g><g id="g-root-tx_testfora_1cw5j831hl5fyi-fill" data-item-order="0" data-item-id="tx_testfora_1cw5j831hl5fyi" data-item-class="Label Stroke" data-item-index="none" data-renderer-id="0" transform="translate(699, 3)"></g><g id="g-root-ro_hssg431hlkw0a-stroke" data-item-order="-13824" data-item-id="ro_hssg431hlkw0a" data-item-class="Shape Stroke Fill" data-item-index="none" data-renderer-id="0" transform="translate(-9, -9)"><g id="ro_hssg431hlkw0a-stroke" fill="none" stroke-linecap="round" stroke-linejoin="round" stroke-miterlimit="1.5" stroke="#CCCCCC" stroke-width="2"><g xmlns="http://www.w3.org/2000/svg"><path d="M 22 10L 190 10C 190 10 202 10 202 22L 202 70C 202 70 202 82 190 82L 22 82C 22 82 10 82 10 70L 10 22C 10 22 10 10 22 10"></path></g></g></g><g id="g-root-ro_qtf91v1hlnnrb-stroke" data-item-order="-12096" data-item-id="ro_qtf91v1hlnnrb" data-item-class="Shape Stroke Fill" data-item-index="none" data-renderer-id="0" transform="translate(239, -9)"><g id="ro_qtf91v1hlnnrb-stroke" fill="none" stroke-linecap="round" stroke-linejoin="round" stroke-miterlimit="1.5" stroke="#1AC6FF" stroke-width="2"><g xmlns="http://www.w3.org/2000/svg"><path d="M 22 10L 166 10C 166 10 178 10 178 22L 178 70C 178 70 178 82 166 82L 22 82C 22 82 10 82 10 70L 10 22C 10 22 10 10 22 10"></path></g></g></g><g id="g-root-ro_18gc13n1hl5gqs-stroke" data-item-order="-11232" data-item-id="ro_18gc13n1hl5gqs" data-item-class="Shape Stroke Fill" data-item-index="none" data-renderer-id="0" transform="translate(651, -9)"><g id="ro_18gc13n1hl5gqs-stroke" fill="none" stroke-linecap="round" stroke-linejoin="round" stroke-miterlimit="1.5" stroke="#1AC6FF" stroke-width="2"><g xmlns="http://www.w3.org/2000/svg"><path d="M 22 10L 154 10C 154 10 166 10 166 22L 166 70C 166 70 166 82 154 82L 22 82C 22 82 10 82 10 70L 10 22C 10 22 10 10 22 10"></path></g></g></g><g id="g-root-ro_147dqxf1hl41s0-stroke" data-item-order="-9504" data-item-id="ro_147dqxf1hl41s0" data-item-class="Shape Stroke Fill" data-item-index="none" data-renderer-id="0" transform="translate(463, -9)"><g id="ro_147dqxf1hl41s0-stroke" fill="none" stroke-linecap="round" stroke-linejoin="round" stroke-miterlimit="1.5" stroke="#1AC6FF" stroke-width="2"><g xmlns="http://www.w3.org/2000/svg"><path d="M 22 10L 130 10C 130 10 142 10 142 22L 142 70C 142 70 142 82 130 82L 22 82C 22 82 10 82 10 70L 10 22C 10 22 10 10 22 10"></path></g></g></g><g id="g-root-page_qofgcz1hlkv7l-stroke" data-item-order="0" data-item-id="page_qofgcz1hlkv7l" data-item-class="Icon Stroke" data-item-index="none" data-renderer-id="0" transform="translate(3, 12)"><g id="page_qofgcz1hlkv7l-stroke" fill="none" stroke-linecap="round" stroke-linejoin="round" stroke-miterlimit="1.5" stroke="#CCCCCC" stroke-width="2"><g xmlns="http://www.w3.org/2000/svg"><path d="M 10.625 14.458L 10.625 11.875C 10.625 11.185 11.185 10.625 11.875 10.625L 14.459 10.625M 14.459 39.375L 11.875 39.375C 11.185 39.375 10.625 38.815 10.625 38.125L 10.625 35.541M 10.625 19.249L 10.625 23.083M 10.625 26.916L 10.625 30.749M 39.375 19.249L 39.375 23.083M 19.25 10.624L 23.084 10.624M 26.916 10.624L 30.75 10.624M 35.541 10.625L 38.125 10.625C 38.815 10.625 39.375 11.185 39.375 11.875L 39.375 14.458M 23.084 39.374L 19.25 39.374M 20.209 27.874C 20.208 32.108 23.64 35.542 27.875 35.542C 32.11 35.542 35.542 32.108 35.541 27.874C 35.542 23.639 32.11 20.206 27.875 20.206C 23.64 20.206 20.208 23.639 20.209 27.874ZM 25.375 27.874L 30.375 27.874M 27.875 25.374L 27.875 30.374M 33.296 33.295L 39.375 39.374"></path></g></g></g><g id="g-root-tx_selector_v48yhf1hlkufc-stroke" data-item-order="0" data-item-id="tx_selector_v48yhf1hlkufc" data-item-class="Label Stroke" data-item-index="none" data-renderer-id="0" transform="translate(39, 3)"><g id="tx_selector_v48yhf1hlkufc-stroke" fill="none" stroke-linecap="square" stroke-linejoin="miter" stroke-miterlimit="4" stroke="#CCCCCC" stroke-width="2"><g xmlns="http://www.w3.org/2000/svg"><path d="M 22.596 17.457C 22.165 15.893 20.545 14.732 18.456 14.732C 16.008 14.732 14.307 15.931 14.307 17.754C 14.307 19.724 15.771 20.685 18.276 21.406C 20.472 22.045 22.709 22.813 22.709 25.288C 22.709 26.951 21.397 28.346 18.34 28.346C 15.868 28.346 14.287 27.106 13.923 25.483M 33.517 27.218C 32.544 28.155 31.519 28.339 30.334 28.339C 28.265 28.339 26.402 27.028 26.402 23.456C 26.402 19.884 28.211 18.573 30.28 18.573C 32.348 18.573 33.952 19.63 33.952 23.201L 26.732 23.201M 38.136 14.125L 38.136 28.126M 49.697 27.218C 48.724 28.155 47.699 28.339 46.514 28.339C 44.445 28.339 42.581 27.028 42.581 23.456C 42.581 19.884 44.391 18.573 46.46 18.573C 48.528 18.573 50.132 19.63 50.132 23.201L 42.912 23.201M 60.992 26.254C 60.62 27.649 59.052 28.339 57.583 28.339C 55.446 28.339 53.68 27.028 53.68 23.456C 53.68 19.884 55.549 18.573 57.687 18.573C 59.194 18.573 60.844 19.41 61.077 20.915M 68.129 28.326C 66.72 28.465 65.862 27.732 65.862 26.387L 65.862 16.081M 68.012 18.642L 66.248 18.642M 63.752 18.642L 65.485 18.642M 77.843 21.438C 77.843 26.143 79.89 28.326 82.898 28.326C 85.907 28.326 87.954 26.143 87.954 21.438C 87.954 16.733 85.737 14.721 82.898 14.721C 80.06 14.721 77.843 16.733 77.843 21.438ZM 96.095 18.609C 94.714 18.419 93.466 19.319 92.824 20.619M 92.469 18.773L 92.469 28.123M 99.778 14.971L 99.802 14.971M 99.762 18.804L 99.762 28.145M 111.699 18.652L 111.699 28.654C 111.699 33.351 106.406 33.001 104.971 31.47M 111.365 26.573C 110.685 27.661 109.461 28.214 108.175 28.214C 105.994 28.214 104.237 26.903 104.237 23.331C 104.237 19.76 105.888 18.449 108.07 18.449C 109.338 18.449 110.643 19.129 111.365 20.502M 116.638 14.971L 116.662 14.971M 116.622 18.804L 116.622 28.145M 121.549 18.78L 121.549 28.128M 128.383 28.128L 128.383 22.074C 128.383 21.362 128.479 18.79 126.096 18.587C 124.338 18.437 122.649 19.562 121.873 20.956M 21.907 52.145L 14.758 52.145L 14.716 45.3L 14.716 38.938M 25.808 44.246C 26.172 43.28 27.588 42.567 28.928 42.567C 30.782 42.567 32.284 43.88 32.284 45.499L 32.29 46.957L 32.29 49.571C 32.29 50.614 32.265 51.353 32.566 52.278M 31.91 46.957L 29.182 46.957C 26.679 46.957 25.379 48.343 25.379 49.837C 25.379 51.332 26.617 52.341 28.233 52.341C 30.215 52.341 31.841 50.888 32.241 49.732M 36.469 56.437C 38.023 56.683 38.945 55.233 39.302 54.286L 43.153 42.691M 36.293 42.691L 39.634 52.1M 54.877 47.457C 54.877 50.522 53.006 52.34 50.698 52.34C 48.39 52.34 46.519 50.522 46.519 47.457C 46.519 44.391 48.39 42.573 50.698 42.573C 53.006 42.573 54.877 44.391 54.877 47.457ZM 65.877 52.115L 65.876 42.767M 59.042 42.767L 59.042 48.821C 59.042 49.533 58.947 52.096 61.329 52.307C 63.42 52.493 64.693 51.653 65.395 50.47M 73.649 52.326C 72.24 52.465 71.382 51.732 71.382 50.387L 71.382 40.081M 73.532 42.642L 71.768 42.642M 69.272 42.642L 71.005 42.642"></path></g></g></g><g id="g-root-penc_v8ma371hlnq4u-stroke" data-item-order="0" data-item-id="penc_v8ma371hlnq4u" data-item-class="Icon Stroke" data-item-index="none" data-renderer-id="0" transform="translate(251, 12)"><g id="penc_v8ma371hlnq4u-stroke" fill="none" stroke-linecap="round" stroke-linejoin="round" stroke-miterlimit="1.5" stroke="#1AC6FF" stroke-width="2"><g xmlns="http://www.w3.org/2000/svg"><path d="M 32.09 12.608L 37.392 17.911L 18.58 36.724L 13.278 31.42ZM 13.276 31.42L 10.625 39.375L 18.58 36.724L 13.276 31.42ZM 37.392 17.91L 32.09 12.608L 32.974 11.724C 34.445 10.303 36.784 10.323 38.231 11.769C 39.677 13.216 39.697 15.555 38.276 17.026Z"></path></g></g></g><g id="g-root-tx_customiz_v8ma371hlnq4t-stroke" data-item-order="0" data-item-id="tx_customiz_v8ma371hlnq4t" data-item-class="Label Stroke" data-item-index="none" data-renderer-id="0" transform="translate(287, 3)"><g id="tx_customiz_v8ma371hlnq4t-stroke" fill="none" stroke-linecap="square" stroke-linejoin="miter" stroke-miterlimit="4" stroke="#1AC6FF" stroke-width="2"><g xmlns="http://www.w3.org/2000/svg"><path d="M 23.637 25.13C 22.976 27.034 21.188 28.398 19.085 28.398C 16.42 28.398 14.259 26.207 14.259 23.504L 14.259 19.621C 14.259 16.918 16.42 14.727 19.085 14.727C 21.188 14.727 22.976 16.091 23.637 17.995M 34.887 28.115L 34.886 18.767M 28.052 18.767L 28.052 24.821C 28.052 25.533 27.957 28.096 30.339 28.308C 32.43 28.493 33.703 27.653 34.405 26.47M 45.848 20.381C 45.552 19.404 44.398 18.584 42.788 18.584C 40.9 18.584 39.68 19.447 39.589 20.751C 39.484 22.246 40.718 22.822 42.648 23.339C 44.342 23.797 46.285 24.277 46.131 26.122C 46.032 27.31 45.055 28.346 42.698 28.346C 40.792 28.346 39.715 27.53 39.38 26.424M 53.469 28.326C 52.06 28.465 51.202 27.732 51.202 26.387L 51.202 16.081M 53.352 18.642L 51.588 18.642M 49.092 18.642L 50.825 18.642M 65.177 23.457C 65.177 26.522 63.306 28.34 60.998 28.34C 58.69 28.34 56.819 26.522 56.819 23.457C 56.819 20.392 58.69 18.573 60.998 18.573C 63.306 18.573 65.177 20.392 65.177 23.457ZM 69.39 18.814L 69.39 28.162M 76.224 28.162L 76.213 21.47C 76.149 20.526 75.782 19.078 73.908 18.649C 71.968 18.205 70.488 19.248 69.752 20.595M 83.059 28.162L 83.059 22.108C 83.059 21.396 83.174 19.206 80.743 18.649C 78.714 18.184 77.179 19.347 76.479 20.783M 88.018 14.971L 88.042 14.971M 88.002 18.804L 88.002 28.145M 92.409 18.78L 99.086 18.78L 99.086 18.936L 92.324 27.904L 92.324 28.128L 99.379 28.128M 109.977 27.218C 109.004 28.155 107.979 28.339 106.794 28.339C 104.725 28.339 102.862 27.028 102.862 23.456C 102.862 19.884 104.671 18.573 106.74 18.573C 108.808 18.573 110.412 19.63 110.412 23.201L 103.192 23.201M 22.115 38.945C 20.715 38.945 15.654 38.95 14.706 38.95L 14.706 52.124M 21.082 45.298L 15.143 45.298M 26.168 38.971L 26.192 38.971M 26.152 42.804L 26.152 52.145M 37.727 51.218C 36.754 52.155 35.729 52.339 34.544 52.339C 32.475 52.339 30.612 51.028 30.612 47.456C 30.612 43.884 32.421 42.573 34.49 42.573C 36.558 42.573 38.162 43.63 38.162 47.201L 30.942 47.201M 42.346 38.125L 42.346 52.126M 54.26 52.124L 54.26 38.123M 53.9 50.773C 53.038 51.871 51.94 52.34 50.63 52.34C 48.449 52.34 46.797 51.029 46.797 47.458C 46.797 43.886 48.554 42.575 50.736 42.575C 52.005 42.575 53.215 43.114 53.9 44.175M 65.268 44.381C 64.972 43.404 63.818 42.584 62.208 42.584C 60.32 42.584 59.1 43.447 59.009 44.751C 58.904 46.246 60.138 46.822 62.068 47.339C 63.762 47.797 65.705 48.277 65.551 50.122C 65.452 51.311 64.475 52.346 62.118 52.346C 60.212 52.346 59.135 51.53 58.8 50.424"></path></g></g></g><g id="g-root-chec_zrk8sz1hl41sf-stroke" data-item-order="0" data-item-id="chec_zrk8sz1hl41sf" data-item-class="Icon Stroke" data-item-index="none" data-renderer-id="0" transform="translate(475, 12)"><g id="chec_zrk8sz1hl41sf-stroke" fill="none" stroke-linecap="round" stroke-linejoin="round" stroke-miterlimit="1.5" stroke="#1AC6FF" stroke-width="2"><g xmlns="http://www.w3.org/2000/svg"><path d="M 15.625 20.625L 27.5 20.625M 15.625 24.375L 23.125 24.375M 15.625 16.875L 24.375 16.875M 15.625 28.125L 20.625 28.125M 15.625 31.875L 20.625 31.875M 23.125 39.375L 11.875 39.375C 11.185 39.375 10.625 38.815 10.625 38.125L 10.625 11.875C 10.625 11.185 11.185 10.625 11.875 10.625L 28.491 10.625C 28.823 10.625 29.141 10.757 29.375 10.991L 34.009 15.625C 34.243 15.859 34.375 16.177 34.375 16.509L 34.375 20.625M 24.375 31.875C 24.375 36.017 27.733 39.375 31.875 39.375C 36.017 39.375 39.375 36.017 39.375 31.875C 39.375 27.733 36.017 24.375 31.875 24.375C 27.733 24.375 24.375 27.733 24.375 31.875ZM 35.217 29.695L 31.586 34.536C 31.423 34.753 31.173 34.889 30.902 34.909C 30.631 34.928 30.365 34.829 30.173 34.637L 28.297 32.762"></path></g></g></g><g id="g-root-tx_applylay_18n791v1hl40zq-stroke" data-item-order="0" data-item-id="tx_applylay_18n791v1hl40zq" data-item-class="Label Stroke" data-item-index="none" data-renderer-id="0" transform="translate(511, 3)"><g id="tx_applylay_18n791v1hl40zq-stroke" fill="none" stroke-linecap="square" stroke-linejoin="miter" stroke-miterlimit="4" stroke="#1AC6FF" stroke-width="2"><g xmlns="http://www.w3.org/2000/svg"><path d="M 13.624 28.145L 18.572 14.973L 19.16 14.973L 24.124 28.145M 15.441 24.294L 22.3 24.294M 28.093 18.774L 28.093 32.393M 28.459 20.124C 29.342 19.027 30.523 18.558 31.832 18.558C 34.013 18.558 35.592 19.904 35.592 23.476C 35.592 27.047 33.908 28.323 31.726 28.323C 30.455 28.323 29.169 27.783 28.459 26.719M 39.863 18.774L 39.863 32.393M 40.229 20.124C 41.112 19.027 42.293 18.558 43.602 18.558C 45.783 18.558 47.362 19.904 47.362 23.476C 47.362 27.047 45.678 28.323 43.496 28.323C 42.225 28.323 40.939 27.783 40.229 26.719M 51.776 14.125L 51.776 28.126M 56.039 32.437C 57.593 32.683 58.515 31.233 58.872 30.286L 62.723 18.691M 55.863 18.691L 59.204 28.1M 21.907 52.145L 14.758 52.145L 14.716 45.3L 14.716 38.938M 25.808 44.246C 26.172 43.28 27.588 42.567 28.928 42.567C 30.782 42.567 32.284 43.88 32.284 45.499L 32.29 46.957L 32.29 49.571C 32.29 50.614 32.265 51.353 32.566 52.278M 31.91 46.957L 29.182 46.957C 26.679 46.957 25.379 48.343 25.379 49.837C 25.379 51.332 26.617 52.341 28.233 52.341C 30.215 52.341 31.841 50.888 32.241 49.732M 36.469 56.437C 38.023 56.683 38.945 55.233 39.302 54.286L 43.153 42.691M 36.293 42.691L 39.634 52.1M 54.877 47.457C 54.877 50.522 53.006 52.34 50.698 52.34C 48.39 52.34 46.519 50.522 46.519 47.457C 46.519 44.391 48.39 42.573 50.698 42.573C 53.006 42.573 54.877 44.391 54.877 47.457ZM 65.877 52.115L 65.876 42.767M 59.042 42.767L 59.042 48.821C 59.042 49.533 58.947 52.096 61.329 52.307C 63.42 52.493 64.693 51.653 65.395 50.47M 73.649 52.326C 72.24 52.465 71.382 51.732 71.382 50.387L 71.382 40.081M 73.532 42.642L 71.768 42.642M 69.272 42.642L 71.005 42.642"></path></g></g></g><g id="g-root-sear_18gc13n1hl5gqr-stroke" data-item-order="0" data-item-id="sear_18gc13n1hl5gqr" data-item-class="Icon Stroke" data-item-index="none" data-renderer-id="0" transform="translate(663, 12)"><g id="sear_18gc13n1hl5gqr-stroke" fill="none" stroke-linecap="round" stroke-linejoin="round" stroke-miterlimit="1.5" stroke="#1AC6FF" stroke-width="2"><g xmlns="http://www.w3.org/2000/svg"><path d="M 11.071 22.686C 11.07 29.101 16.27 34.302 22.686 34.302C 29.101 34.302 34.301 29.101 34.3 22.686C 34.301 16.27 29.101 11.069 22.686 11.069C 16.27 11.069 11.07 16.27 11.071 22.686M 38.929 38.929L 30.893 30.893"></path></g></g></g><g id="g-root-tx_testfora_1cw5j831hl5fyi-stroke" data-item-order="0" data-item-id="tx_testfora_1cw5j831hl5fyi" data-item-class="Label Stroke" data-item-index="none" data-renderer-id="0" transform="translate(699, 3)"><g id="tx_testfora_1cw5j831hl5fyi-stroke" fill="none" stroke-linecap="square" stroke-linejoin="miter" stroke-miterlimit="4" stroke="#1AC6FF" stroke-width="2"><g xmlns="http://www.w3.org/2000/svg"><path d="M 23.173 14.945C 19.91 14.945 16.647 14.95 13.384 14.95M 18.27 28.124L 18.27 15.456M 33.577 27.218C 32.604 28.155 31.579 28.339 30.394 28.339C 28.325 28.339 26.462 27.028 26.462 23.456C 26.462 19.884 28.271 18.573 30.34 18.573C 32.408 18.573 34.012 19.63 34.012 23.201L 26.792 23.201M 44.218 20.381C 43.922 19.404 42.768 18.584 41.158 18.584C 39.27 18.584 38.05 19.447 37.959 20.751C 37.854 22.246 39.088 22.822 41.018 23.339C 42.712 23.797 44.655 24.277 44.501 26.122C 44.402 27.31 43.425 28.346 41.068 28.346C 39.162 28.346 38.085 27.53 37.75 26.424M 51.839 28.326C 50.43 28.465 49.572 27.732 49.572 26.387L 49.572 16.081M 51.722 18.642L 49.958 18.642M 47.462 18.642L 49.195 18.642M 65.864 13.926C 65.696 13.908 65.415 13.907 65.287 13.907C 63.708 13.907 62.71 15.035 62.71 16.425L 62.71 28.129M 65.135 18.664L 63.046 18.664M 60.858 18.664L 62.384 18.664M 76.627 23.457C 76.627 26.522 74.756 28.34 72.448 28.34C 70.14 28.34 68.269 26.522 68.269 23.457C 68.269 20.392 70.14 18.573 72.448 18.573C 74.756 18.573 76.627 20.392 76.627 23.457ZM 84.425 18.609C 83.044 18.419 81.796 19.319 81.154 20.619M 80.799 18.773L 80.799 28.123M 13.624 52.145L 18.572 38.973L 19.16 38.973L 24.124 52.145M 15.441 48.294L 22.3 48.294M 34.912 50.254C 34.54 51.649 32.972 52.339 31.503 52.339C 29.366 52.339 27.6 51.028 27.6 47.456C 27.6 43.884 29.469 42.573 31.607 42.573C 33.114 42.573 34.764 43.41 34.997 44.915M 45.892 50.254C 45.52 51.649 43.952 52.339 42.483 52.339C 40.346 52.339 38.58 51.028 38.58 47.456C 38.58 43.884 40.449 42.573 42.587 42.573C 44.094 42.573 45.744 43.41 45.977 44.915M 56.867 52.115L 56.866 42.767M 50.032 42.767L 50.032 48.821C 50.032 49.533 49.937 52.096 52.319 52.307C 54.41 52.493 55.683 51.653 56.385 50.47M 65.275 42.609C 63.894 42.419 62.646 43.319 62.004 44.619M 61.649 42.773L 61.649 52.123M 68.898 44.246C 69.262 43.28 70.678 42.567 72.018 42.567C 73.872 42.567 75.374 43.88 75.374 45.499L 75.38 46.957L 75.38 49.571C 75.38 50.614 75.355 51.353 75.657 52.278M 75 46.957L 72.272 46.957C 69.769 46.957 68.469 48.343 68.469 49.837C 68.469 51.332 69.707 52.341 71.323 52.341C 73.305 52.341 74.931 50.888 75.331 49.732M 87.022 50.254C 86.65 51.649 85.082 52.339 83.613 52.339C 81.476 52.339 79.71 51.028 79.71 47.456C 79.71 43.884 81.579 42.573 83.717 42.573C 85.224 42.573 86.874 43.41 87.107 44.915M 90.539 56.437C 92.093 56.683 93.015 55.233 93.372 54.286L 97.223 42.691M 90.363 42.691L 93.704 52.1"></path></g></g></g><path id="cu_hu1hg31hl5gqz" d="M25 33 L 53 33 L 81 33 M71,41q2.5,-2,5,-4q5,-4,5,-4q0,0,-5,-4q-2.5,-2,-5,-4" transform="translate(168, 4)" style="fill:none;stroke-linecap:round;stroke-linejoin:round;stroke-miterlimit:1.5;stroke:#c0c0c0;stroke-width:2"></path><path id="cu_hu1hg31hl5gqw" d="M25 33 L 53 33 L 81 33 M71,41q2.5,-2,5,-4q5,-4,5,-4q0,0,-5,-4q-2.5,-2,-5,-4" transform="translate(392, 4)" style="fill:none;stroke-linecap:round;stroke-linejoin:round;stroke-miterlimit:1.5;stroke:#c0c0c0;stroke-width:2"></path><path id="cu_m9uzkj1hl5fyl" d="M25 33 L 53 33 L 81 33 M71,41q2.5,-2,5,-4q5,-4,5,-4q0,0,-5,-4q-2.5,-2,-5,-4" transform="translate(580, 4)" style="fill:none;stroke-linecap:round;stroke-linejoin:round;stroke-miterlimit:1.5;stroke:#c0c0c0;stroke-width:2"></path></g></svg>