<svg width="660" height="103" viewBox="0 0 660 103" style="fill:none;stroke:none;fill-rule:evenodd;clip-rule:evenodd;stroke-linecap:round;stroke-linejoin:round;stroke-miterlimit:1.5;" version="1.1" xmlns="http://www.w3.org/2000/svg" xmlns:xlink="http://www.w3.org/1999/xlink"><g id="blend" style="mix-blend-mode:multiply"><g id="g-root-glue_zrjjko19jsgzm-fill" data-item-order="0" data-item-id="glue_zrjjko19jsgzm" data-item-class="Icon Stroke SceneTarget Indexed" data-item-index="none" data-renderer-id="0" transform="translate(38, -4)"></g><g id="g-root-1_1cu9eqg19jtw5c-fill" data-item-order="0" data-item-id="1_1cu9eqg19jtw5c" data-item-class="Icon Stroke SceneTarget Indexed" data-item-index="none" data-renderer-id="0" transform="translate(170, -4)"></g><g id="g-root-2_1qdu38819jsgzl-fill" data-item-order="0" data-item-id="2_1qdu38819jsgzl" data-item-class="Icon Stroke SceneTarget Indexed" data-item-index="none" data-renderer-id="0" transform="translate(302, -4)"></g><g id="g-root-1_qwj0ew19jsemj-fill" data-item-order="0" data-item-id="1_qwj0ew19jsemj" data-item-class="Icon Stroke SceneTarget Indexed" data-item-index="none" data-renderer-id="0" transform="translate(434, -4)"></g><g id="g-root-sear_8vdk19jtt73-fill" data-item-order="0" data-item-id="sear_8vdk19jtt73" data-item-class="Icon Stroke SceneTarget Indexed" data-item-index="none" data-renderer-id="0" transform="translate(566, -4)"></g><g id="g-root-tx_docbits_1qcl52019jr0nc-fill" data-item-order="0" data-item-id="tx_docbits_1qcl52019jr0nc" data-item-class="Label Stroke SceneTarget Indexed" data-item-index="none" data-renderer-id="0" transform="translate(14, 44)"></g><g id="g-root-tx_artifici_meu31419jr289-fill" data-item-order="0" data-item-id="tx_artifici_meu31419jr289" data-item-class="Label Stroke SceneTarget Indexed" data-item-index="none" data-renderer-id="0" transform="translate(128, 44)"></g><g id="g-root-tx_machinel_4o6jmg19jr1fm-fill" data-item-order="0" data-item-id="tx_machinel_4o6jmg19jr1fm" data-item-class="Label Stroke SceneTarget Indexed" data-item-index="none" data-renderer-id="0" transform="translate(272, 44)"></g><g id="g-root-tx_dataextr_1utnlco19jr217-fill" data-item-order="0" data-item-id="tx_dataextr_1utnlco19jr217" data-item-class="Label Stroke SceneTarget Indexed" data-item-index="none" data-renderer-id="0" transform="translate(398, 44)"></g><g id="g-root-tx_document_1qdu38819jr2tg-fill" data-item-order="0" data-item-id="tx_document_1qdu38819jr2tg" data-item-class="Label Stroke SceneTarget Indexed" data-item-index="none" data-renderer-id="0" transform="translate(524, 44)"></g><g id="g-root-glue_zrjjko19jsgzm-stroke" data-item-order="0" data-item-id="glue_zrjjko19jsgzm" data-item-class="Icon Stroke SceneTarget Indexed" data-item-index="none" data-renderer-id="0" transform="translate(38, -4)"><g id="glue_zrjjko19jsgzm-stroke" fill="none" stroke-linecap="round" stroke-linejoin="round" stroke-miterlimit="1.5" stroke="#e3cd09" stroke-width="2"><g xmlns="http://www.w3.org/2000/svg"><path d="M 22.75 45.25L 12.25 45.25C 11.422 45.25 10.75 44.578 10.75 43.75L 10.75 12.25C 10.75 11.422 11.422 10.75 12.25 10.75L 32.189 10.75C 32.587 10.749 32.968 10.906 33.25 11.186L 38.811 16.75C 39.092 17.031 39.25 17.413 39.25 17.81L 39.25 25.75M 43.45 31.24C 42.926 30.715 42.098 30.651 41.5 31.09L 34.757 36.04L 30.899 39.896L 36.202 45.199L 40.054 41.35L 44.966 34.548C 45.399 33.952 45.336 33.13 44.817 32.608ZM 34.927 43.936L 33.461 45.249L 29.125 45.249C 28.818 45.249 28.543 45.062 28.429 44.777C 28.315 44.492 28.385 44.167 28.608 43.955L 31.854 40.864"></path></g></g></g><g id="g-root-1_1cu9eqg19jtw5c-stroke" data-item-order="0" data-item-id="1_1cu9eqg19jtw5c" data-item-class="Icon Stroke SceneTarget Indexed" data-item-index="none" data-renderer-id="0" transform="translate(170, -4)"><g id="1_1cu9eqg19jtw5c-stroke" fill="none" stroke-linecap="round" stroke-linejoin="round" stroke-miterlimit="1.5" stroke="#dd8433" stroke-width="2"><g xmlns="http://www.w3.org/2000/svg"><path d="M 18.925 40.542C 20.515 40.277 21.858 39.213 22.48 37.726M 13.632 22.819C 16.7 23.357 19.336 25.308 20.747 28.086M 18.674 25.344L 21.364 23.326M 25 11.009C 24.971 12.513 24.7 14.002 24.196 15.42M 22 16.75C 22 17.578 22.672 18.25 23.5 18.25C 24.328 18.25 25 17.578 25 16.75C 25 15.922 24.328 15.25 23.5 15.25C 22.672 15.25 22 15.922 22 16.75ZM 31 19.75C 31 20.578 31.672 21.25 32.5 21.25C 33.328 21.25 34 20.578 34 19.75C 34 18.922 33.328 18.25 32.5 18.25C 31.672 18.25 31 18.922 31 19.75ZM 36.25 25.75C 36.25 26.578 36.922 27.25 37.75 27.25C 38.578 27.25 39.25 26.578 39.25 25.75C 39.25 24.922 38.578 24.25 37.75 24.25C 36.922 24.25 36.25 24.922 36.25 25.75ZM 31 31C 31 31.828 31.672 32.5 32.5 32.5C 33.328 32.5 34 31.828 34 31C 34 30.172 33.328 29.5 32.5 29.5C 31.672 29.5 31 30.172 31 31ZM 21.25 22.75C 21.25 23.578 21.922 24.25 22.75 24.25C 23.578 24.25 24.25 23.578 24.25 22.75C 24.25 21.922 23.578 21.25 22.75 21.25C 21.922 21.25 21.25 21.922 21.25 22.75ZM 19.75 29.5C 19.75 30.328 20.422 31 21.25 31C 22.078 31 22.75 30.328 22.75 29.5C 22.75 28.672 22.078 28 21.25 28C 20.422 28 19.75 28.672 19.75 29.5ZM 45.25 28C 45.256 25.889 44.165 23.927 42.368 22.819C 42.47 22.376 42.523 21.923 42.526 21.469C 42.556 18.35 40.182 15.732 37.075 15.458C 37.106 14.23 36.644 13.041 35.791 12.156C 34.939 11.271 33.768 10.765 32.539 10.75C 30.597 10.861 28.864 12.007 28 13.75C 27.136 12.007 25.403 10.861 23.461 10.75C 22.232 10.765 21.061 11.271 20.209 12.156C 19.356 13.041 18.894 14.23 18.925 15.458C 15.817 15.732 13.442 18.352 13.474 21.472C 13.475 21.926 13.525 22.379 13.624 22.822C 11.832 23.935 10.743 25.894 10.743 28.003C 10.743 30.112 11.832 32.071 13.624 33.184C 13.525 33.627 13.475 34.08 13.474 34.534C 13.446 37.652 15.819 40.268 18.925 40.542C 18.894 41.77 19.356 42.959 20.209 43.844C 21.061 44.729 22.232 45.235 23.461 45.25C 25.252 45.293 26.95 44.452 28 43C 29.05 44.452 30.748 45.293 32.539 45.25C 33.768 45.235 34.939 44.729 35.791 43.844C 36.644 42.959 37.106 41.77 37.075 40.542C 40.183 40.268 42.558 37.648 42.526 34.528C 42.523 34.074 42.47 33.621 42.368 33.178C 44.164 32.07 45.255 30.11 45.25 28ZM 28 13.75L 28 31M 28 36.937L 28 43M 41.759 18.494L 37.6 20.576C 36.385 21.185 34.957 21.199 33.73 20.615M 32.5 29.5C 32.945 27.644 34.394 26.195 36.25 25.75M 37.075 40.542C 36.661 39.1 35.954 37.992 34.75 37.75M 21.25 36.25C 21.25 37.078 21.922 37.75 22.75 37.75C 23.578 37.75 24.25 37.078 24.25 36.25C 24.25 35.422 23.578 34.75 22.75 34.75C 21.922 34.75 21.25 35.422 21.25 36.25ZM 31.75 37.75C 31.75 38.578 32.422 39.25 33.25 39.25C 34.078 39.25 34.75 38.578 34.75 37.75C 34.75 36.922 34.078 36.25 33.25 36.25C 32.422 36.25 31.75 36.922 31.75 37.75Z"></path></g></g></g><g id="g-root-2_1qdu38819jsgzl-stroke" data-item-order="0" data-item-id="2_1qdu38819jsgzl" data-item-class="Icon Stroke SceneTarget Indexed" data-item-index="none" data-renderer-id="0" transform="translate(302, -4)"><g id="2_1qdu38819jsgzl-stroke" fill="none" stroke-linecap="round" stroke-linejoin="round" stroke-miterlimit="1.5" stroke="#da5da8" stroke-width="2"><g xmlns="http://www.w3.org/2000/svg"><path d="M 24.25 28.002C 24.25 30.073 25.929 31.752 28 31.752C 30.071 31.752 31.75 30.073 31.75 28.002C 31.75 25.93 30.071 24.252 28 24.252C 25.929 24.252 24.25 25.93 24.25 28.002ZM 16 28.002C 16 34.629 21.373 40.001 28 40.001C 34.627 40.001 40 34.629 40 28.002C 40 21.374 34.627 16.001 28 16.001C 21.373 16.001 16 21.374 16 28.002ZM 28 16.001L 28 10.752M 36.486 19.516L 40.198 15.804M 40 28.002L 45.25 28.002M 36.486 36.487L 40.198 40.2M 28 40.001L 28 45.251M 19.514 36.487L 15.802 40.2M 16 28.002L 10.75 28.002M 19.514 19.516L 15.802 15.804"></path></g></g></g><g id="g-root-1_qwj0ew19jsemj-stroke" data-item-order="0" data-item-id="1_qwj0ew19jsemj" data-item-class="Icon Stroke SceneTarget Indexed" data-item-index="none" data-renderer-id="0" transform="translate(434, -4)"><g id="1_qwj0ew19jsemj-stroke" fill="none" stroke-linecap="round" stroke-linejoin="round" stroke-miterlimit="1.5" stroke="#b65edf" stroke-width="2"><g xmlns="http://www.w3.org/2000/svg"><path d="M 44.714 11.286L 11.286 11.286C 11.289 19.033 16.607 25.766 24.143 27.563L 24.143 44.714L 31.857 39.571L 31.857 27.563C 39.393 25.766 44.711 19.033 44.714 11.286Z"></path></g></g></g><g id="g-root-sear_8vdk19jtt73-stroke" data-item-order="0" data-item-id="sear_8vdk19jtt73" data-item-class="Icon Stroke SceneTarget Indexed" data-item-index="none" data-renderer-id="0" transform="translate(566, -4)"><g id="sear_8vdk19jtt73-stroke" fill="none" stroke-linecap="round" stroke-linejoin="round" stroke-miterlimit="1.5" stroke="#795ee3" stroke-width="2"><g xmlns="http://www.w3.org/2000/svg"><path d="M 11.286 25.223C 11.284 32.921 17.525 39.163 25.223 39.163C 32.921 39.163 39.161 32.921 39.16 25.223C 39.161 17.525 32.921 11.283 25.223 11.283C 17.525 11.283 11.284 17.525 11.286 25.223M 44.714 44.714L 35.071 35.071"></path></g></g></g><g id="g-root-tx_docbits_1qcl52019jr0nc-stroke" data-item-order="0" data-item-id="tx_docbits_1qcl52019jr0nc" data-item-class="Label Stroke SceneTarget Indexed" data-item-index="none" data-renderer-id="0" transform="translate(14, 44)"><g id="tx_docbits_1qcl52019jr0nc-stroke" fill="none" stroke-linecap="square" stroke-linejoin="miter" stroke-miterlimit="4" stroke="#484848" stroke-width="2"><g xmlns="http://www.w3.org/2000/svg"><path d="M 22.447 28.18L 18.438 28.183L 18.438 14.948C 19.385 14.948 20.664 14.946 22.064 14.946C 23.517 14.91 27.297 16.173 27.297 21.511C 27.297 26.848 23.772 28.18 22.447 28.18ZM 39.667 23.457C 39.667 26.522 37.796 28.34 35.488 28.34C 33.18 28.34 31.309 26.522 31.309 23.457C 31.309 20.392 33.18 18.573 35.488 18.573C 37.796 18.573 39.667 20.392 39.667 23.457ZM 50.672 26.254C 50.3 27.649 48.732 28.339 47.263 28.339C 45.126 28.339 43.36 27.028 43.36 23.456C 43.36 19.884 45.229 18.573 47.367 18.573C 48.874 18.573 50.524 19.41 50.757 20.915M 55.194 28.18L 55.194 14.945M 55.637 21.18L 59.841 21.18M 55.637 14.945L 59.787 14.945C 61.537 14.945 62.85 15.602 62.85 18.008C 62.85 19.933 61.063 20.924 60.17 21.18C 61.209 21.253 63.287 22.066 63.287 24.734C 63.287 27.403 61.209 28.143 60.17 28.18L 55.637 28.18M 68.068 14.971L 68.092 14.971M 68.052 18.804L 68.052 28.145M 75.949 28.326C 74.54 28.465 73.682 27.732 73.682 26.387L 73.682 16.081M 75.832 18.642L 74.068 18.642M 71.572 18.642L 73.305 18.642M 86.018 20.381C 85.722 19.404 84.568 18.584 82.958 18.584C 81.07 18.584 79.85 19.447 79.759 20.751C 79.654 22.246 80.888 22.822 82.818 23.339C 84.512 23.797 86.455 24.277 86.301 26.122C 86.202 27.31 85.225 28.346 82.868 28.346C 80.962 28.346 79.885 27.53 79.55 26.424"></path></g></g></g><g id="g-root-tx_artifici_meu31419jr289-stroke" data-item-order="0" data-item-id="tx_artifici_meu31419jr289" data-item-class="Label Stroke SceneTarget Indexed" data-item-index="none" data-renderer-id="0" transform="translate(128, 44)"><g id="tx_artifici_meu31419jr289-stroke" fill="none" stroke-linecap="square" stroke-linejoin="miter" stroke-miterlimit="4" stroke="#484848" stroke-width="2"><g xmlns="http://www.w3.org/2000/svg"><path d="M 32.864 28.145L 37.812 14.973L 38.4 14.973L 43.364 28.145M 34.681 24.294L 41.54 24.294M 50.945 18.609C 49.564 18.419 48.316 19.319 47.674 20.619M 47.319 18.773L 47.319 28.123M 57.419 28.326C 56.01 28.465 55.152 27.732 55.152 26.387L 55.152 16.081M 57.302 18.642L 55.538 18.642M 53.042 18.642L 54.775 18.642M 61.508 14.971L 61.532 14.971M 61.492 18.804L 61.492 28.145M 70.534 13.926C 70.366 13.908 70.085 13.907 69.957 13.907C 68.378 13.907 67.38 15.035 67.38 16.425L 67.38 28.129M 69.805 18.664L 67.716 18.664M 65.528 18.664L 67.054 18.664M 73.678 14.971L 73.702 14.971M 73.662 18.804L 73.662 28.145M 85.402 26.254C 85.03 27.649 83.462 28.339 81.993 28.339C 79.856 28.339 78.09 27.028 78.09 23.456C 78.09 19.884 79.959 18.573 82.097 18.573C 83.604 18.573 85.254 19.41 85.487 20.915M 89.748 14.971L 89.772 14.971M 89.732 18.804L 89.732 28.145M 94.778 20.246C 95.142 19.28 96.558 18.567 97.898 18.567C 99.752 18.567 101.254 19.88 101.254 21.499L 101.26 22.957L 101.26 25.571C 101.26 26.614 101.235 27.353 101.536 28.278M 100.88 22.957L 98.152 22.957C 95.649 22.957 94.349 24.343 94.349 25.837C 94.349 27.331 95.587 28.341 97.203 28.341C 99.185 28.341 100.811 26.888 101.211 25.732M 106.226 14.125L 106.226 28.126M 19.295 38.938L 19.295 52.127M 24.519 42.78L 24.519 52.128M 31.353 52.128L 31.353 46.074C 31.353 45.362 31.449 42.79 29.066 42.587C 27.308 42.437 25.619 43.562 24.843 44.956M 39.099 52.326C 37.69 52.465 36.832 51.732 36.832 50.387L 36.832 40.081M 38.982 42.642L 37.218 42.642M 34.722 42.642L 36.455 42.642M 49.657 51.218C 48.684 52.155 47.659 52.339 46.474 52.339C 44.405 52.339 42.542 51.028 42.542 47.456C 42.542 43.884 44.351 42.573 46.42 42.573C 48.488 42.573 50.092 43.63 50.092 47.201L 42.872 47.201M 54.276 38.125L 54.276 52.126M 59.326 38.125L 59.326 52.126M 64.418 38.971L 64.442 38.971M 64.402 42.804L 64.402 52.145M 76.339 42.652L 76.339 52.654C 76.339 57.351 71.046 57.001 69.611 55.47M 76.005 50.573C 75.325 51.661 74.101 52.214 72.815 52.214C 70.634 52.214 68.877 50.903 68.877 47.331C 68.877 43.76 70.528 42.449 72.71 42.449C 73.978 42.449 75.283 43.129 76.005 44.502M 87.747 51.218C 86.774 52.155 85.749 52.339 84.564 52.339C 82.495 52.339 80.632 51.028 80.632 47.456C 80.632 43.884 82.441 42.573 84.51 42.573C 86.578 42.573 88.182 43.63 88.182 47.201L 80.962 47.201M 92.229 42.78L 92.229 52.128M 99.063 52.128L 99.063 46.074C 99.063 45.362 99.159 42.79 96.776 42.587C 95.018 42.437 93.329 43.562 92.553 44.956M 110.652 50.254C 110.28 51.649 108.712 52.339 107.243 52.339C 105.106 52.339 103.34 51.028 103.34 47.456C 103.34 43.884 105.209 42.573 107.347 42.573C 108.854 42.573 110.504 43.41 110.737 44.915M 121.467 51.218C 120.494 52.155 119.469 52.339 118.284 52.339C 116.215 52.339 114.352 51.028 114.352 47.456C 114.352 43.884 116.161 42.573 118.23 42.573C 120.298 42.573 121.902 43.63 121.902 47.201L 114.682 47.201"></path></g></g></g><g id="g-root-tx_machinel_4o6jmg19jr1fm-stroke" data-item-order="0" data-item-id="tx_machinel_4o6jmg19jr1fm" data-item-class="Label Stroke SceneTarget Indexed" data-item-index="none" data-renderer-id="0" transform="translate(272, 44)"><g id="tx_machinel_4o6jmg19jr1fm-stroke" fill="none" stroke-linecap="square" stroke-linejoin="miter" stroke-miterlimit="4" stroke="#484848" stroke-width="2"><g xmlns="http://www.w3.org/2000/svg"><path d="M 20.661 28.117L 20.669 14.978L 21.638 14.978L 26.941 28.115L 27.257 28.115L 32.576 14.978L 33.546 14.978L 33.54 28.117M 38.758 20.246C 39.122 19.28 40.538 18.567 41.878 18.567C 43.732 18.567 45.234 19.88 45.234 21.499L 45.24 22.957L 45.24 25.571C 45.24 26.614 45.215 27.353 45.517 28.278M 44.86 22.957L 42.132 22.957C 39.629 22.957 38.329 24.343 38.329 25.837C 38.329 27.331 39.567 28.341 41.183 28.341C 43.165 28.341 44.791 26.888 45.191 25.732M 56.882 26.254C 56.51 27.649 54.942 28.339 53.473 28.339C 51.336 28.339 49.57 27.028 49.57 23.456C 49.57 19.884 51.439 18.573 53.577 18.573C 55.084 18.573 56.734 19.41 56.967 20.915M 61.038 14.086L 61.038 28.128M 67.902 28.128L 67.902 22.074C 67.902 21.362 67.998 18.791 65.605 18.587C 63.851 18.439 62.166 19.547 61.379 20.928M 72.798 14.971L 72.822 14.971M 72.782 18.804L 72.782 28.145M 77.709 18.78L 77.709 28.128M 84.543 28.128L 84.543 22.074C 84.543 21.362 84.639 18.79 82.256 18.587C 80.498 18.437 78.809 19.562 78.033 20.956M 95.967 27.218C 94.994 28.155 93.969 28.339 92.784 28.339C 90.715 28.339 88.852 27.028 88.852 23.456C 88.852 19.884 90.661 18.573 92.73 18.573C 94.798 18.573 96.402 19.63 96.402 23.201L 89.182 23.201M 27.377 52.145L 20.228 52.145L 20.186 45.3L 20.186 38.938M 37.807 51.218C 36.834 52.155 35.809 52.339 34.624 52.339C 32.555 52.339 30.692 51.028 30.692 47.456C 30.692 43.884 32.501 42.573 34.57 42.573C 36.638 42.573 38.242 43.63 38.242 47.201L 31.022 47.201M 42.408 44.246C 42.772 43.28 44.188 42.567 45.528 42.567C 47.382 42.567 48.884 43.88 48.884 45.499L 48.89 46.957L 48.89 49.571C 48.89 50.614 48.865 51.353 49.167 52.278M 48.51 46.957L 45.782 46.957C 43.279 46.957 41.979 48.343 41.979 49.837C 41.979 51.332 43.217 52.341 44.833 52.341C 46.815 52.341 48.441 50.888 48.841 49.732M 57.325 42.609C 55.944 42.419 54.696 43.319 54.054 44.619M 53.699 42.773L 53.699 52.123M 60.829 42.78L 60.829 52.128M 67.663 52.128L 67.663 46.074C 67.663 45.362 67.759 42.79 65.376 42.587C 63.618 42.437 61.929 43.562 61.153 44.956M 72.618 38.971L 72.642 38.971M 72.602 42.804L 72.602 52.145M 77.529 42.78L 77.529 52.128M 84.363 52.128L 84.363 46.074C 84.363 45.362 84.459 42.79 82.076 42.587C 80.318 42.437 78.629 43.562 77.853 44.956M 96.149 42.652L 96.149 52.654C 96.149 57.351 90.856 57.001 89.421 55.47M 95.815 50.573C 95.135 51.661 93.911 52.214 92.625 52.214C 90.444 52.214 88.687 50.903 88.687 47.331C 88.687 43.76 90.338 42.449 92.52 42.449C 93.788 42.449 95.093 43.129 95.815 44.502"></path></g></g></g><g id="g-root-tx_dataextr_1utnlco19jr217-stroke" data-item-order="0" data-item-id="tx_dataextr_1utnlco19jr217" data-item-class="Label Stroke SceneTarget Indexed" data-item-index="none" data-renderer-id="0" transform="translate(398, 44)"><g id="tx_dataextr_1utnlco19jr217-stroke" fill="none" stroke-linecap="square" stroke-linejoin="miter" stroke-miterlimit="4" stroke="#484848" stroke-width="2"><g xmlns="http://www.w3.org/2000/svg"><path d="M 48.977 28.18L 44.968 28.183L 44.968 14.948C 45.915 14.948 47.194 14.946 48.594 14.946C 50.047 14.91 53.827 16.173 53.827 21.511C 53.827 26.848 50.302 28.18 48.977 28.18ZM 58.518 20.246C 58.882 19.28 60.298 18.567 61.638 18.567C 63.492 18.567 64.994 19.88 64.994 21.499L 65 22.957L 65 25.571C 65 26.614 64.975 27.353 65.276 28.278M 64.62 22.957L 61.892 22.957C 59.389 22.957 58.089 24.343 58.089 25.837C 58.089 27.331 59.327 28.341 60.943 28.341C 62.925 28.341 64.551 26.888 64.951 25.732M 72.799 28.326C 71.39 28.465 70.532 27.732 70.532 26.387L 70.532 16.081M 72.682 18.642L 70.918 18.642M 68.422 18.642L 70.155 18.642M 76.828 20.246C 77.192 19.28 78.608 18.567 79.948 18.567C 81.802 18.567 83.304 19.88 83.304 21.499L 83.31 22.957L 83.31 25.571C 83.31 26.614 83.285 27.353 83.587 28.278M 82.93 22.957L 80.202 22.957C 77.699 22.957 76.399 24.343 76.399 25.837C 76.399 27.331 77.637 28.341 79.253 28.341C 81.235 28.341 82.861 26.888 83.261 25.732M 27.112 52.137L 19.549 52.142L 19.549 38.95C 20.497 38.95 25.671 38.95 27.071 38.95M 26.059 45.297L 20.013 45.297M 30.873 42.611L 33.864 47.243M 37.136 52.31L 34.039 47.514M 37.025 42.611L 30.762 52.31M 44.554 52.326C 43.145 52.465 42.287 51.732 42.287 50.387L 42.287 40.081M 44.437 42.642L 42.673 42.642M 40.177 42.642L 41.91 42.642M 52.07 42.609C 50.689 42.419 49.441 43.319 48.799 44.619M 48.444 42.773L 48.444 52.123M 55.693 44.246C 56.057 43.28 57.473 42.567 58.813 42.567C 60.667 42.567 62.169 43.88 62.169 45.499L 62.175 46.957L 62.175 49.571C 62.175 50.614 62.15 51.353 62.452 52.278M 61.795 46.957L 59.067 46.957C 56.564 46.957 55.264 48.343 55.264 49.837C 55.264 51.332 56.502 52.341 58.118 52.341C 60.1 52.341 61.726 50.888 62.126 49.732M 73.817 50.254C 73.445 51.649 71.877 52.339 70.408 52.339C 68.271 52.339 66.505 51.028 66.505 47.456C 66.505 43.884 68.374 42.573 70.512 42.573C 72.019 42.573 73.669 43.41 73.902 44.915M 80.954 52.326C 79.545 52.465 78.687 51.732 78.687 50.387L 78.687 40.081M 80.837 42.642L 79.073 42.642M 76.577 42.642L 78.31 42.642M 85.043 38.971L 85.067 38.971M 85.027 42.804L 85.027 52.145M 97.752 47.457C 97.752 50.522 95.881 52.34 93.573 52.34C 91.265 52.34 89.394 50.522 89.394 47.457C 89.394 44.391 91.265 42.573 93.573 42.573C 95.881 42.573 97.752 44.391 97.752 47.457ZM 101.944 42.78L 101.944 52.128M 108.778 52.128L 108.778 46.074C 108.778 45.362 108.874 42.79 106.491 42.587C 104.733 42.437 103.044 43.562 102.268 44.956"></path></g></g></g><g id="g-root-tx_document_1qdu38819jr2tg-stroke" data-item-order="0" data-item-id="tx_document_1qdu38819jr2tg" data-item-class="Label Stroke SceneTarget Indexed" data-item-index="none" data-renderer-id="0" transform="translate(524, 44)"><g id="tx_document_1qdu38819jr2tg-stroke" fill="none" stroke-linecap="square" stroke-linejoin="miter" stroke-miterlimit="4" stroke="#484848" stroke-width="2"><g xmlns="http://www.w3.org/2000/svg"><path d="M 28.512 28.18L 24.503 28.183L 24.503 14.948C 25.45 14.948 26.729 14.946 28.129 14.946C 29.582 14.91 33.362 16.173 33.362 21.511C 33.362 26.848 29.837 28.18 28.512 28.18ZM 45.732 23.457C 45.732 26.522 43.861 28.34 41.553 28.34C 39.245 28.34 37.374 26.522 37.374 23.457C 37.374 20.392 39.245 18.573 41.553 18.573C 43.861 18.573 45.732 20.392 45.732 23.457ZM 56.737 26.254C 56.365 27.649 54.797 28.339 53.328 28.339C 51.191 28.339 49.425 27.028 49.425 23.456C 49.425 19.884 51.294 18.573 53.432 18.573C 54.939 18.573 56.589 19.41 56.822 20.915M 67.712 28.115L 67.711 18.767M 60.877 18.767L 60.877 24.821C 60.877 25.533 60.782 28.096 63.164 28.308C 65.255 28.493 66.528 27.653 67.23 26.47M 72.535 18.814L 72.535 28.162M 79.369 28.162L 79.358 21.47C 79.294 20.526 78.927 19.078 77.053 18.649C 75.113 18.205 73.633 19.248 72.897 20.595M 86.204 28.162L 86.204 22.108C 86.204 21.396 86.319 19.206 83.888 18.649C 81.859 18.184 80.325 19.347 79.624 20.783M 97.632 27.218C 96.659 28.155 95.634 28.339 94.449 28.339C 92.38 28.339 90.517 27.028 90.517 23.456C 90.517 19.884 92.326 18.573 94.395 18.573C 96.463 18.573 98.067 19.63 98.067 23.201L 90.847 23.201M 102.114 18.78L 102.114 28.128M 108.948 28.128L 108.948 22.074C 108.948 21.362 109.044 18.79 106.661 18.587C 104.903 18.437 103.214 19.562 102.438 20.956M 116.694 28.326C 115.285 28.465 114.427 27.732 114.427 26.387L 114.427 16.081M 116.577 18.642L 114.813 18.642M 112.317 18.642L 114.05 18.642M 17.195 52.133L 17.195 38.945L 21.991 38.93C 23.061 38.967 25.382 39.729 25.382 42.477C 25.382 45.224 23.061 46.061 21.991 46.137L 17.744 46.15M 25.609 52.249L 22.498 46.514M 36.417 51.218C 35.444 52.155 34.419 52.339 33.234 52.339C 31.165 52.339 29.302 51.028 29.302 47.456C 29.302 43.884 31.111 42.573 33.18 42.573C 35.248 42.573 36.852 43.63 36.852 47.201L 29.632 47.201M 47.712 50.254C 47.34 51.649 45.772 52.339 44.303 52.339C 42.166 52.339 40.4 51.028 40.4 47.456C 40.4 43.884 42.269 42.573 44.407 42.573C 45.914 42.573 47.564 43.41 47.797 44.915M 59.677 47.457C 59.677 50.522 57.806 52.34 55.498 52.34C 53.19 52.34 51.319 50.522 51.319 47.457C 51.319 44.391 53.19 42.573 55.498 42.573C 57.806 42.573 59.677 44.391 59.677 47.457ZM 70.879 42.652L 70.879 52.654C 70.879 57.351 65.586 57.001 64.151 55.47M 70.545 50.573C 69.865 51.661 68.641 52.214 67.355 52.214C 65.174 52.214 63.417 50.903 63.417 47.331C 63.417 43.76 65.068 42.449 67.25 42.449C 68.518 42.449 69.823 43.129 70.545 44.502M 75.639 42.78L 75.639 52.128M 82.473 52.128L 82.473 46.074C 82.473 45.362 82.569 42.79 80.186 42.587C 78.428 42.437 76.739 43.562 75.963 44.956M 87.428 38.971L 87.452 38.971M 87.412 42.804L 87.412 52.145M 95.309 52.326C 93.9 52.465 93.042 51.732 93.042 50.387L 93.042 40.081M 95.192 42.642L 93.428 42.642M 90.932 42.642L 92.665 42.642M 99.398 38.971L 99.422 38.971M 99.382 42.804L 99.382 52.145M 112.107 47.457C 112.107 50.522 110.236 52.34 107.928 52.34C 105.62 52.34 103.749 50.522 103.749 47.457C 103.749 44.391 105.62 42.573 107.928 42.573C 110.236 42.573 112.107 44.391 112.107 47.457ZM 116.299 42.78L 116.299 52.128M 123.133 52.128L 123.133 46.074C 123.133 45.362 123.229 42.79 120.846 42.587C 119.088 42.437 117.399 43.562 116.623 44.956"></path></g></g></g></g></svg>