<svg width="662" height="542" viewBox="0 0 662 542" style="fill:none;stroke:none;fill-rule:evenodd;clip-rule:evenodd;stroke-linecap:round;stroke-linejoin:round;stroke-miterlimit:1.5;" version="1.1" xmlns="http://www.w3.org/2000/svg" xmlns:xlink="http://www.w3.org/1999/xlink"><g id="blend" style="mix-blend-mode:multiply"><g id="g-root-1.Vector_sy_1hgy4tk1ano07b-fill" data-item-order="-238262" data-item-id="1.Vector_sy_1hgy4tk1ano07b" data-item-class="ScenePart Indexed Indexed_1 Fill Stroke" data-item-index="1" data-renderer-id="0" transform="translate(104, 459)"><g id="1.Vector_sy_1hgy4tk1ano07b-fill" stroke="none" fill="#fffce6"><g xmlns="http://www.w3.org/2000/svg"><path d="M 143.5 10L 106 10L 73 10C 71.343 10 70 11.343 70 13C 70 14.657 71.343 16 73 16L 76 16L 76 34L 43 34C 41.343 34 40 35.343 40 37C 40 38.657 41.343 40 43 40L 46 40L 46 58L 13 58C 11.343 58 10 59.343 10 61C 10 62.657 11.343 64 13 64L 16 64L 16 82L 53.5 82L 143.5 10Z"></path></g></g></g><g id="g-root-2.Vector_sy_1d14mp41ano0zk-fill" data-item-order="-238260" data-item-id="2.Vector_sy_1d14mp41ano0zk" data-item-class="ScenePart Indexed Fill Stroke" data-item-index="2" data-renderer-id="0" transform="translate(195, 387)"><g id="2.Vector_sy_1d14mp41ano0zk-fill" stroke="none" fill="#fef2e6"><g xmlns="http://www.w3.org/2000/svg"><path d="M 143.5 10L 106 10L 73 10C 71.343 10 70 11.343 70 13C 70 14.657 71.343 16 73 16L 76 16L 76 34L 43 34C 41.343 34 40 35.343 40 37C 40 38.657 41.343 40 43 40L 46 40L 46 58L 13 58C 11.343 58 10 59.343 10 61C 10 62.657 11.343 64 13 64L 16 64L 16 82L 53.5 82L 143.5 10Z"></path></g></g></g><g id="g-root-3.Vector_sy_1d14mp41ano0zl-fill" data-item-order="-238258" data-item-id="3.Vector_sy_1d14mp41ano0zl" data-item-class="ScenePart Indexed Fill Stroke" data-item-index="3" data-renderer-id="0" transform="translate(285, 315)"><g id="3.Vector_sy_1d14mp41ano0zl-fill" stroke="none" fill="#ffe7e6"><g xmlns="http://www.w3.org/2000/svg"><path d="M 143.5 10L 106 10L 73 10C 71.343 10 70 11.343 70 13C 70 14.657 71.343 16 73 16L 76 16L 76 34L 43 34C 41.343 34 40 35.343 40 37C 40 38.657 41.343 40 43 40L 46 40L 46 58L 13 58C 11.343 58 10 59.343 10 61C 10 62.657 11.343 64 13 64L 16 64L 16 82L 53.5 82L 143.5 10Z"></path></g></g></g><g id="g-root-4.Vector_sy_1d14mp41ano0zm-fill" data-item-order="-238256" data-item-id="4.Vector_sy_1d14mp41ano0zm" data-item-class="ScenePart Indexed Fill Stroke" data-item-index="4" data-renderer-id="0" transform="translate(375, 243)"><g id="4.Vector_sy_1d14mp41ano0zm-fill" stroke="none" fill="#fee7f5"><g xmlns="http://www.w3.org/2000/svg"><path d="M 143.5 10L 106 10L 73 10C 71.343 10 70 11.343 70 13C 70 14.657 71.343 16 73 16L 76 16L 76 34L 43 34C 41.343 34 40 35.343 40 37C 40 38.657 41.343 40 43 40L 46 40L 46 58L 13 58C 11.343 58 10 59.343 10 61C 10 62.657 11.343 64 13 64L 16 64L 16 82L 53.5 82L 143.5 10Z"></path></g></g></g><g id="g-root-5.Vector_sy_1d14mp41ano0zn-fill" data-item-order="-238254" data-item-id="5.Vector_sy_1d14mp41ano0zn" data-item-class="ScenePart Indexed Fill Stroke" data-item-index="5" data-renderer-id="0" transform="translate(465, 171)"><g id="5.Vector_sy_1d14mp41ano0zn-fill" stroke="none" fill="#f7e6fe"><g xmlns="http://www.w3.org/2000/svg"><path d="M 106 10L 143.5 10L 53.5 82L 16 82L 16 64L 13 64C 11.343 64 10 62.657 10 61C 10 59.343 11.343 58 13 58L 46 58L 46 40L 43 40C 41.343 40 40 38.657 40 37C 40 35.343 41.343 34 43 34L 76 34L 76 16L 73 16C 71.343 16 70 14.657 70 13C 70 11.343 71.343 10 73 10L 106 10Z"></path></g></g></g><g id="g-root-6.Vector_sy_1d14mp41ano0zo-fill" data-item-order="-238252" data-item-id="6.Vector_sy_1d14mp41ano0zo" data-item-class="ScenePart Indexed Fill Stroke" data-item-index="6" data-renderer-id="0" transform="translate(555, 99)"><g id="6.Vector_sy_1d14mp41ano0zo-fill" stroke="none" fill="#e6efff"><g xmlns="http://www.w3.org/2000/svg"><path d="M 106 16L 106 40L 53.5 82L 16 82L 16 64L 13 64C 11.343 64 10 62.657 10 61C 10 59.343 11.343 58 13 58L 46 58L 46 40L 43 40C 41.343 40 40 38.657 40 37C 40 35.343 41.343 34 43 34L 76 34L 76 16L 73 16C 71.343 16 70 14.657 70 13C 70 11.343 71.343 10 73 10L 106 10L 106 16Z"></path></g></g></g><g id="g-root-tx_validati_meu31k1ano0zv-fill" data-item-order="0" data-item-id="tx_validati_meu31k1ano0zv" data-item-class="Label Stroke SceneTarget SceneTitle" data-item-index="none" data-renderer-id="0" transform="translate(105, -9)"></g><g id="g-root-tx_efficien_145hmg81ano1sd-fill" data-item-order="0" data-item-id="tx_efficien_145hmg81ano1sd" data-item-class="Label Stroke SceneTarget Indexed" data-item-index="6" data-renderer-id="0" transform="translate(465, 51)"></g><g id="g-root-writ_v8lo141anpg5h-fill" data-item-order="0" data-item-id="writ_v8lo141anpg5h" data-item-class="Icon Stroke SceneTarget Indexed" data-item-index="6" data-renderer-id="0" transform="translate(573, 39)"></g><g id="g-root-911_hvw7hk1anpfk4-fill" data-item-order="0" data-item-id="911_hvw7hk1anpfk4" data-item-class="Icon Stroke SceneTarget Indexed" data-item-index="5" data-renderer-id="0" transform="translate(483, 111)"></g><g id="g-root-tx_complian_145hmg81ano1se-fill" data-item-order="0" data-item-id="tx_complian_145hmg81ano1se" data-item-class="Label Stroke SceneTarget Indexed" data-item-index="5" data-renderer-id="0" transform="translate(351, 123)"></g><g id="g-root-add_1lwrmy01anpf5u-fill" data-item-order="0" data-item-id="add_1lwrmy01anpf5u" data-item-class="Icon Stroke SceneTarget Indexed" data-item-index="4" data-renderer-id="0" transform="translate(393, 183)"></g><g id="g-root-tx_userfrie_zqalew1annzev-fill" data-item-order="0" data-item-id="tx_userfrie_zqalew1annzev" data-item-class="Label Stroke SceneTarget Indexed" data-item-index="4" data-renderer-id="0" transform="translate(213, 195)"></g><g id="g-root-tx_errorpre_vah3ag1ano074-fill" data-item-order="0" data-item-id="tx_errorpre_vah3ag1ano074" data-item-class="Label Stroke SceneTarget Indexed" data-item-index="3" data-renderer-id="0" transform="translate(135, 267)"></g><g id="g-root-2_1qappt41anpfd3-fill" data-item-order="0" data-item-id="2_1qappt41anpfd3" data-item-class="Icon Stroke SceneTarget Indexed" data-item-index="3" data-renderer-id="0" transform="translate(303, 255)"></g><g id="g-root-tx_datainte_vah3ag1ano075-fill" data-item-order="0" data-item-id="tx_datainte_vah3ag1ano075" data-item-class="Label Stroke SceneTarget Indexed" data-item-index="2" data-renderer-id="0" transform="translate(69, 339)"></g><g id="g-root-bars_1czvoiw1anpdsa-fill" data-item-order="0" data-item-id="bars_1czvoiw1anpdsa" data-item-class="Icon Stroke SceneTarget Indexed" data-item-index="2" data-renderer-id="0" transform="translate(213, 327)"></g><g id="g-root-tx_dataqual_vah3ag1ano076-fill" data-item-order="0" data-item-id="tx_dataqual_vah3ag1ano076" data-item-class="Label Stroke SceneTarget Indexed Indexed_1" data-item-index="1" data-renderer-id="0" transform="translate(-9, 411)"></g><g id="g-root-chec_58o2w1ans744-fill" data-item-order="0" data-item-id="chec_58o2w1ans744" data-item-class="Icon Stroke SceneTarget Indexed Indexed_1" data-item-index="1" data-renderer-id="0" transform="translate(123, 399)"></g><g id="g-root-1.Vector_sy_1hgy4tk1ano07b-stroke" data-item-order="-238262" data-item-id="1.Vector_sy_1hgy4tk1ano07b" data-item-class="ScenePart Indexed Indexed_1 Fill Stroke" data-item-index="1" data-renderer-id="0" transform="translate(104, 459)"><g id="1.Vector_sy_1hgy4tk1ano07b-stroke" fill="none" stroke-linecap="round" stroke-linejoin="round" stroke-miterlimit="1.5" stroke="#e3cd09" stroke-width="2"><g xmlns="http://www.w3.org/2000/svg"><path d="M 143.5 10L 106 10L 73 10C 71.343 10 70 11.343 70 13C 70 14.657 71.343 16 73 16L 76 16L 76 34L 43 34C 41.343 34 40 35.343 40 37C 40 38.657 41.343 40 43 40L 46 40L 46 58L 13 58C 11.343 58 10 59.343 10 61C 10 62.657 11.343 64 13 64L 16 64L 16 82L 53.5 82L 143.5 10Z"></path></g></g></g><g id="g-root-2.Vector_sy_1d14mp41ano0zk-stroke" data-item-order="-238260" data-item-id="2.Vector_sy_1d14mp41ano0zk" data-item-class="ScenePart Indexed Fill Stroke" data-item-index="2" data-renderer-id="0" transform="translate(195, 387)"><g id="2.Vector_sy_1d14mp41ano0zk-stroke" fill="none" stroke-linecap="round" stroke-linejoin="round" stroke-miterlimit="1.5" stroke="#dd8433" stroke-width="2"><g xmlns="http://www.w3.org/2000/svg"><path d="M 143.5 10L 106 10L 73 10C 71.343 10 70 11.343 70 13C 70 14.657 71.343 16 73 16L 76 16L 76 34L 43 34C 41.343 34 40 35.343 40 37C 40 38.657 41.343 40 43 40L 46 40L 46 58L 13 58C 11.343 58 10 59.343 10 61C 10 62.657 11.343 64 13 64L 16 64L 16 82L 53.5 82L 143.5 10Z"></path></g></g></g><g id="g-root-3.Vector_sy_1d14mp41ano0zl-stroke" data-item-order="-238258" data-item-id="3.Vector_sy_1d14mp41ano0zl" data-item-class="ScenePart Indexed Fill Stroke" data-item-index="3" data-renderer-id="0" transform="translate(285, 315)"><g id="3.Vector_sy_1d14mp41ano0zl-stroke" fill="none" stroke-linecap="round" stroke-linejoin="round" stroke-miterlimit="1.5" stroke="#e15e5a" stroke-width="2"><g xmlns="http://www.w3.org/2000/svg"><path d="M 143.5 10L 106 10L 73 10C 71.343 10 70 11.343 70 13C 70 14.657 71.343 16 73 16L 76 16L 76 34L 43 34C 41.343 34 40 35.343 40 37C 40 38.657 41.343 40 43 40L 46 40L 46 58L 13 58C 11.343 58 10 59.343 10 61C 10 62.657 11.343 64 13 64L 16 64L 16 82L 53.5 82L 143.5 10Z"></path></g></g></g><g id="g-root-4.Vector_sy_1d14mp41ano0zm-stroke" data-item-order="-238256" data-item-id="4.Vector_sy_1d14mp41ano0zm" data-item-class="ScenePart Indexed Fill Stroke" data-item-index="4" data-renderer-id="0" transform="translate(375, 243)"><g id="4.Vector_sy_1d14mp41ano0zm-stroke" fill="none" stroke-linecap="round" stroke-linejoin="round" stroke-miterlimit="1.5" stroke="#da5da8" stroke-width="2"><g xmlns="http://www.w3.org/2000/svg"><path d="M 143.5 10L 106 10L 73 10C 71.343 10 70 11.343 70 13C 70 14.657 71.343 16 73 16L 76 16L 76 34L 43 34C 41.343 34 40 35.343 40 37C 40 38.657 41.343 40 43 40L 46 40L 46 58L 13 58C 11.343 58 10 59.343 10 61C 10 62.657 11.343 64 13 64L 16 64L 16 82L 53.5 82L 143.5 10Z"></path></g></g></g><g id="g-root-5.Vector_sy_1d14mp41ano0zn-stroke" data-item-order="-238254" data-item-id="5.Vector_sy_1d14mp41ano0zn" data-item-class="ScenePart Indexed Fill Stroke" data-item-index="5" data-renderer-id="0" transform="translate(465, 171)"><g id="5.Vector_sy_1d14mp41ano0zn-stroke" fill="none" stroke-linecap="round" stroke-linejoin="round" stroke-miterlimit="1.5" stroke="#b65edf" stroke-width="2"><g xmlns="http://www.w3.org/2000/svg"><path d="M 106 10L 143.5 10L 53.5 82L 16 82L 16 64L 13 64C 11.343 64 10 62.657 10 61C 10 59.343 11.343 58 13 58L 46 58L 46 40L 43 40C 41.343 40 40 38.657 40 37C 40 35.343 41.343 34 43 34L 76 34L 76 16L 73 16C 71.343 16 70 14.657 70 13C 70 11.343 71.343 10 73 10L 106 10Z"></path></g></g></g><g id="g-root-6.Vector_sy_1d14mp41ano0zo-stroke" data-item-order="-238252" data-item-id="6.Vector_sy_1d14mp41ano0zo" data-item-class="ScenePart Indexed Fill Stroke" data-item-index="6" data-renderer-id="0" transform="translate(555, 99)"><g id="6.Vector_sy_1d14mp41ano0zo-stroke" fill="none" stroke-linecap="round" stroke-linejoin="round" stroke-miterlimit="1.5" stroke="#4682e3" stroke-width="2"><g xmlns="http://www.w3.org/2000/svg"><path d="M 106 16L 106 40L 53.5 82L 16 82L 16 64L 13 64C 11.343 64 10 62.657 10 61C 10 59.343 11.343 58 13 58L 46 58L 46 40L 43 40C 41.343 40 40 38.657 40 37C 40 35.343 41.343 34 43 34L 76 34L 76 16L 73 16C 71.343 16 70 14.657 70 13C 70 11.343 71.343 10 73 10L 106 10L 106 16Z"></path></g></g></g><g id="g-root-tx_validati_meu31k1ano0zv-stroke" data-item-order="0" data-item-id="tx_validati_meu31k1ano0zv" data-item-class="Label Stroke SceneTarget SceneTitle" data-item-index="none" data-renderer-id="0" transform="translate(105, -9)"><g id="tx_validati_meu31k1ano0zv-stroke" fill="none" stroke-linecap="square" stroke-linejoin="miter" stroke-miterlimit="4" stroke="#484848" stroke-width="2"><g xmlns="http://www.w3.org/2000/svg"><path d="M 24.547 14.93L 19.809 28.103L 19.248 28.103L 14.525 14.93M 28.713 20.246C 29.077 19.28 30.493 18.567 31.833 18.567C 33.687 18.567 35.189 19.88 35.189 21.499L 35.195 22.957L 35.195 25.571C 35.195 26.614 35.17 27.353 35.471 28.278M 34.815 22.957L 32.087 22.957C 29.584 22.957 28.284 24.343 28.284 25.837C 28.284 27.331 29.522 28.341 31.138 28.341C 33.12 28.341 34.746 26.888 35.146 25.732M 40.161 14.125L 40.161 28.126M 45.253 14.971L 45.277 14.971M 45.237 18.804L 45.237 28.145M 57.165 28.124L 57.165 14.123M 56.805 26.773C 55.943 27.871 54.845 28.34 53.535 28.34C 51.354 28.34 49.702 27.029 49.702 23.458C 49.702 19.886 51.459 18.575 53.641 18.575C 54.91 18.575 56.12 19.114 56.805 20.175M 62.133 20.246C 62.497 19.28 63.913 18.567 65.253 18.567C 67.107 18.567 68.609 19.88 68.609 21.499L 68.615 22.957L 68.615 25.571C 68.615 26.614 68.59 27.353 68.891 28.278M 68.235 22.957L 65.507 22.957C 63.004 22.957 61.704 24.343 61.704 25.837C 61.704 27.331 62.942 28.341 64.558 28.341C 66.54 28.341 68.166 26.888 68.566 25.732M 76.414 28.326C 75.005 28.465 74.147 27.732 74.147 26.387L 74.147 16.081M 76.297 18.642L 74.533 18.642M 72.037 18.642L 73.77 18.642M 80.503 14.971L 80.527 14.971M 80.487 18.804L 80.487 28.145M 93.212 23.457C 93.212 26.522 91.341 28.34 89.033 28.34C 86.725 28.34 84.854 26.522 84.854 23.457C 84.854 20.392 86.725 18.573 89.033 18.573C 91.341 18.573 93.212 20.392 93.212 23.457ZM 97.404 18.78L 97.404 28.128M 104.238 28.128L 104.238 22.074C 104.238 21.362 104.334 18.79 101.951 18.587C 100.193 18.437 98.504 19.562 97.728 20.956M 123.231 17.457C 122.8 15.893 121.18 14.732 119.091 14.732C 116.643 14.732 114.942 15.931 114.942 17.754C 114.942 19.724 116.406 20.685 118.91 21.406C 121.107 22.045 123.344 22.813 123.344 25.288C 123.344 26.951 122.032 28.346 118.975 28.346C 116.503 28.346 114.922 27.106 114.558 25.483M 134.317 26.254C 133.945 27.649 132.377 28.339 130.908 28.339C 128.771 28.339 127.005 27.028 127.005 23.456C 127.005 19.884 128.874 18.573 131.012 18.573C 132.519 18.573 134.169 19.41 134.402 20.915M 142.09 18.609C 140.709 18.419 139.461 19.319 138.819 20.619M 138.464 18.773L 138.464 28.123M 152.242 27.218C 151.269 28.155 150.244 28.339 149.059 28.339C 146.99 28.339 145.126 27.028 145.126 23.456C 145.126 19.884 146.936 18.573 149.005 18.573C 151.073 18.573 152.677 19.63 152.677 23.201L 145.457 23.201M 163.372 27.218C 162.399 28.155 161.374 28.339 160.189 28.339C 158.12 28.339 156.257 27.028 156.257 23.456C 156.257 19.884 158.066 18.573 160.135 18.573C 162.203 18.573 163.807 19.63 163.807 23.201L 156.587 23.201M 167.854 18.78L 167.854 28.128M 174.688 28.128L 174.688 22.074C 174.688 21.362 174.784 18.79 172.401 18.587C 170.643 18.437 168.954 19.562 168.178 20.956M 185.826 28.131L 185.826 14.944L 191.105 14.928C 192.203 14.967 194.588 15.749 194.588 18.572C 194.588 21.394 192.203 22.254 191.105 22.331L 186.354 22.345M 202.31 18.609C 200.929 18.419 199.681 19.319 199.039 20.619M 198.684 18.773L 198.684 28.123M 213.612 23.457C 213.612 26.522 211.741 28.34 209.433 28.34C 207.125 28.34 205.254 26.522 205.254 23.457C 205.254 20.392 207.125 18.573 209.433 18.573C 211.741 18.573 213.612 20.392 213.612 23.457ZM 224.617 26.254C 224.245 27.649 222.677 28.339 221.208 28.339C 219.071 28.339 217.305 27.028 217.305 23.456C 217.305 19.884 219.174 18.573 221.312 18.573C 222.819 18.573 224.469 19.41 224.702 20.915M 235.432 27.218C 234.459 28.155 233.434 28.339 232.249 28.339C 230.18 28.339 228.316 27.028 228.316 23.456C 228.316 19.884 230.126 18.573 232.195 18.573C 234.263 18.573 235.867 19.63 235.867 23.201L 228.647 23.201M 246.073 20.381C 245.777 19.404 244.623 18.584 243.013 18.584C 241.125 18.584 239.905 19.447 239.814 20.751C 239.709 22.246 240.943 22.822 242.873 23.339C 244.567 23.797 246.51 24.277 246.356 26.122C 246.257 27.31 245.28 28.346 242.923 28.346C 241.017 28.346 239.94 27.53 239.605 26.424M 256.883 20.381C 256.587 19.404 255.433 18.584 253.823 18.584C 251.935 18.584 250.715 19.447 250.624 20.751C 250.519 22.246 251.753 22.822 253.683 23.339C 255.377 23.797 257.32 24.277 257.166 26.122C 257.067 27.31 256.09 28.346 253.733 28.346C 251.827 28.346 250.75 27.53 250.415 26.424"></path></g></g></g><g id="g-root-tx_efficien_145hmg81ano1sd-stroke" data-item-order="0" data-item-id="tx_efficien_145hmg81ano1sd" data-item-class="Label Stroke SceneTarget Indexed" data-item-index="6" data-renderer-id="0" transform="translate(465, 51)"><g id="tx_efficien_145hmg81ano1sd-stroke" fill="none" stroke-linecap="square" stroke-linejoin="miter" stroke-miterlimit="4" stroke="#484848" stroke-width="2"><g xmlns="http://www.w3.org/2000/svg"><path d="M 23.337 28.137L 15.774 28.142L 15.774 14.95C 16.722 14.95 21.896 14.95 23.296 14.95M 22.284 21.297L 16.238 21.297M 31.494 13.926C 31.326 13.908 31.045 13.907 30.917 13.907C 29.338 13.907 28.34 15.035 28.34 16.425L 28.34 28.129M 30.765 18.664L 28.676 18.664M 26.488 18.664L 28.014 18.664M 38.574 13.926C 38.406 13.908 38.125 13.907 37.997 13.907C 36.418 13.907 35.42 15.035 35.42 16.425L 35.42 28.129M 37.845 18.664L 35.756 18.664M 33.568 18.664L 35.094 18.664M 41.718 14.971L 41.742 14.971M 41.702 18.804L 41.702 28.145M 53.442 26.254C 53.07 27.649 51.502 28.339 50.033 28.339C 47.896 28.339 46.13 27.028 46.13 23.456C 46.13 19.884 47.999 18.573 50.137 18.573C 51.644 18.573 53.294 19.41 53.527 20.915M 57.788 14.971L 57.812 14.971M 57.772 18.804L 57.772 28.145M 69.347 27.218C 68.374 28.155 67.349 28.339 66.164 28.339C 64.095 28.339 62.231 27.028 62.231 23.456C 62.231 19.884 64.041 18.573 66.11 18.573C 68.178 18.573 69.782 19.63 69.782 23.201L 62.562 23.201M 73.829 18.78L 73.829 28.128M 80.663 28.128L 80.663 22.074C 80.663 21.362 80.759 18.79 78.376 18.587C 76.618 18.437 74.929 19.562 74.153 20.956M 92.252 26.254C 91.88 27.649 90.312 28.339 88.843 28.339C 86.706 28.339 84.94 27.028 84.94 23.456C 84.94 19.884 86.809 18.573 88.947 18.573C 90.454 18.573 92.104 19.41 92.337 20.915M 95.769 32.437C 97.323 32.683 98.245 31.233 98.602 30.286L 102.453 18.691M 95.593 18.691L 98.934 28.1"></path></g></g></g><g id="g-root-writ_v8lo141anpg5h-stroke" data-item-order="0" data-item-id="writ_v8lo141anpg5h" data-item-class="Icon Stroke SceneTarget Indexed" data-item-index="6" data-renderer-id="0" transform="translate(573, 39)"><g id="writ_v8lo141anpg5h-stroke" fill="none" stroke-linecap="round" stroke-linejoin="round" stroke-miterlimit="1.5" stroke="#4682e3" stroke-width="2"><g xmlns="http://www.w3.org/2000/svg"><path d="M 47 48L 47 55C 47 56.105 46.105 57 45 57L 13 57C 11.895 57 11 56.105 11 55L 11 19C 11 17.895 11.895 17 13 17L 19 17M 39 17L 45 17C 46.105 17 47 17.895 47 19L 47 26M 26 13.998C 26 15.655 27.343 16.998 29 16.998C 30.657 16.998 32 15.655 32 13.998C 32 12.341 30.657 10.998 29 10.998C 27.343 10.998 26 12.341 26 13.998ZM 31.83 15L 37 15C 38.105 15 39 15.895 39 17L 39 19C 39 20.105 38.105 21 37 21L 21 21C 19.895 21 19 20.105 19 19L 19 17C 19 15.895 19.895 15 21 15L 26.17 15M 17 28.998L 41 28.998M 17 36.998L 35.932 36.998M 17 44.998L 32.966 44.998M 44 45L 37 47L 39 40L 50.964 28.036C 52.351 26.693 54.559 26.711 55.924 28.076C 57.289 29.441 57.307 31.649 55.964 33.036Z"></path></g></g></g><g id="g-root-911_hvw7hk1anpfk4-stroke" data-item-order="0" data-item-id="911_hvw7hk1anpfk4" data-item-class="Icon Stroke SceneTarget Indexed" data-item-index="5" data-renderer-id="0" transform="translate(483, 111)"><g id="911_hvw7hk1anpfk4-stroke" fill="none" stroke-linecap="round" stroke-linejoin="round" stroke-miterlimit="1.5" stroke="#b65edf" stroke-width="2"><g xmlns="http://www.w3.org/2000/svg"><path d="M 32.15 24.928C 33.288 26.269 35.295 26.441 36.644 25.312L 39.942 22.218C 41.153 20.945 41.111 18.933 39.848 17.712L 37.966 15.7C 36.465 13.983 33.981 13.524 31.966 14.59C 23.905 19.334 16.996 25.809 11.74 33.546C 10.549 35.487 10.847 37.992 12.46 39.6L 14.346 41.612C 15.483 42.953 17.488 43.127 18.838 42L 22.136 38.908C 23.35 37.636 23.309 35.623 22.046 34.4L 20.902 33.178C 23.917 29.667 27.303 26.492 31 23.708ZM 37 54L 45 54M 37 45L 39.646 42.354C 39.872 42.127 40.179 41.999 40.5 42C 40.776 42 41 42.224 41 42.5L 41 54M 49 54L 57 54M 49 45L 51.646 42.354C 51.872 42.127 52.179 41.999 52.5 42C 52.776 42 53 42.224 53 42.5L 53 54M 25 46C 25 48.209 26.791 50 29 50C 31.209 50 33 48.209 33 46C 33 43.791 31.209 42 29 42C 26.791 42 25 43.791 25 46ZM 33 46L 33 49C 33 51.761 30.761 54 28 54L 27 54"></path></g></g></g><g id="g-root-tx_complian_145hmg81ano1se-stroke" data-item-order="0" data-item-id="tx_complian_145hmg81ano1se" data-item-class="Label Stroke SceneTarget Indexed" data-item-index="5" data-renderer-id="0" transform="translate(351, 123)"><g id="tx_complian_145hmg81ano1se-stroke" fill="none" stroke-linecap="square" stroke-linejoin="miter" stroke-miterlimit="4" stroke="#484848" stroke-width="2"><g xmlns="http://www.w3.org/2000/svg"><path d="M 28.417 25.13C 27.756 27.034 25.968 28.398 23.865 28.398C 21.2 28.398 19.039 26.207 19.039 23.504L 19.039 19.621C 19.039 16.918 21.2 14.727 23.865 14.727C 25.968 14.727 27.756 16.091 28.417 17.995M 40.657 23.457C 40.657 26.522 38.786 28.34 36.478 28.34C 34.17 28.34 32.299 26.522 32.299 23.457C 32.299 20.392 34.17 18.573 36.478 18.573C 38.786 18.573 40.657 20.392 40.657 23.457ZM 44.87 18.814L 44.87 28.162M 51.704 28.162L 51.693 21.47C 51.629 20.526 51.262 19.078 49.388 18.649C 47.448 18.205 45.968 19.248 45.232 20.595M 58.539 28.162L 58.539 22.108C 58.539 21.396 58.654 19.206 56.223 18.649C 54.194 18.184 52.66 19.347 51.959 20.783M 63.313 18.774L 63.313 32.393M 63.679 20.124C 64.562 19.027 65.743 18.558 67.052 18.558C 69.233 18.558 70.812 19.904 70.812 23.476C 70.812 27.047 69.128 28.323 66.946 28.323C 65.675 28.323 64.389 27.783 63.679 26.719M 75.226 14.125L 75.226 28.126M 80.318 14.971L 80.342 14.971M 80.302 18.804L 80.302 28.145M 85.348 20.246C 85.712 19.28 87.128 18.567 88.468 18.567C 90.322 18.567 91.824 19.88 91.824 21.499L 91.83 22.957L 91.83 25.571C 91.83 26.614 91.805 27.353 92.106 28.278M 91.45 22.957L 88.722 22.957C 86.219 22.957 84.919 24.343 84.919 25.837C 84.919 27.331 86.157 28.341 87.773 28.341C 89.755 28.341 91.381 26.888 91.781 25.732M 96.659 18.78L 96.659 28.128M 103.493 28.128L 103.493 22.074C 103.493 21.362 103.589 18.79 101.206 18.587C 99.448 18.437 97.759 19.562 96.983 20.956M 115.082 26.254C 114.71 27.649 113.142 28.339 111.673 28.339C 109.536 28.339 107.77 27.028 107.77 23.456C 107.77 19.884 109.639 18.573 111.777 18.573C 113.284 18.573 114.934 19.41 115.167 20.915M 125.897 27.218C 124.924 28.155 123.899 28.339 122.714 28.339C 120.645 28.339 118.782 27.028 118.782 23.456C 118.782 19.884 120.591 18.573 122.66 18.573C 124.728 18.573 126.332 19.63 126.332 23.201L 119.112 23.201"></path></g></g></g><g id="g-root-add_1lwrmy01anpf5u-stroke" data-item-order="0" data-item-id="add_1lwrmy01anpf5u" data-item-class="Icon Stroke SceneTarget Indexed" data-item-index="4" data-renderer-id="0" transform="translate(393, 183)"><g id="add_1lwrmy01anpf5u-stroke" fill="none" stroke-linecap="round" stroke-linejoin="round" stroke-miterlimit="1.5" stroke="#da5da8" stroke-width="2"><g xmlns="http://www.w3.org/2000/svg"><path d="M 37 47C 37 52.523 41.477 57 47 57C 52.523 57 57 52.523 57 47C 57 41.477 52.523 37 47 37C 41.477 37 37 41.477 37 47ZM 47 43L 47 51M 43 47L 51 47M 11 37C 11.019 35.143 11.403 33.309 12.13 31.6C 12.93 30 16.256 28.9 20.436 27.352C 21.566 26.934 21.38 23.984 20.88 23.432C 19.269 21.686 18.479 19.335 18.71 16.97C 18.565 15.464 19.053 13.966 20.056 12.834C 21.059 11.702 22.488 11.037 24 11C 25.512 11.037 26.941 11.702 27.944 12.834C 28.947 13.966 29.435 15.464 29.29 16.97C 29.522 19.336 28.732 21.687 27.12 23.434C 26.62 23.986 26.434 26.936 27.564 27.354C 31.744 28.902 35.072 30.008 35.87 31.602C 36.597 33.311 36.981 35.145 37 37.002ZM 31.824 11.474C 32.506 11.159 33.249 10.997 34 11C 35.512 11.037 36.941 11.702 37.944 12.834C 38.947 13.966 39.435 15.464 39.29 16.97C 39.522 19.336 38.732 21.687 37.12 23.434C 36.62 23.986 36.434 26.936 37.564 27.354C 41.744 28.902 45.072 30.008 45.87 31.602C 45.918 31.7 45.966 31.802 46.01 31.902"></path></g></g></g><g id="g-root-tx_userfrie_zqalew1annzev-stroke" data-item-order="0" data-item-id="tx_userfrie_zqalew1annzev" data-item-class="Label Stroke SceneTarget Indexed" data-item-index="4" data-renderer-id="0" transform="translate(213, 195)"><g id="tx_userfrie_zqalew1annzev-stroke" fill="none" stroke-linecap="square" stroke-linejoin="miter" stroke-miterlimit="4" stroke="#484848" stroke-width="2"><g xmlns="http://www.w3.org/2000/svg"><path d="M 16.859 14.947L 16.859 24.478C 16.859 26.611 18.839 28.34 21.281 28.34C 23.723 28.34 25.702 26.611 25.702 24.478L 25.702 14.947M 36.588 20.381C 36.292 19.404 35.138 18.584 33.528 18.584C 31.64 18.584 30.42 19.447 30.329 20.751C 30.224 22.246 31.458 22.822 33.388 23.339C 35.082 23.797 37.025 24.277 36.871 26.122C 36.772 27.31 35.795 28.346 33.438 28.346C 31.532 28.346 30.455 27.53 30.12 26.424M 47.887 27.218C 46.914 28.155 45.889 28.339 44.704 28.339C 42.635 28.339 40.772 27.028 40.772 23.456C 40.772 19.884 42.581 18.573 44.65 18.573C 46.718 18.573 48.322 19.63 48.322 23.201L 41.102 23.201M 55.975 18.609C 54.594 18.419 53.346 19.319 52.704 20.619M 52.349 18.773L 52.349 28.123M 73.215 14.945C 71.815 14.945 66.754 14.95 65.806 14.95L 65.806 28.124M 72.182 21.298L 66.243 21.298M 80.695 18.609C 79.314 18.419 78.066 19.319 77.424 20.619M 77.069 18.773L 77.069 28.123M 84.378 14.971L 84.402 14.971M 84.362 18.804L 84.362 28.145M 95.937 27.218C 94.964 28.155 93.939 28.339 92.754 28.339C 90.685 28.339 88.822 27.028 88.822 23.456C 88.822 19.884 90.631 18.573 92.7 18.573C 94.768 18.573 96.372 19.63 96.372 23.201L 89.152 23.201M 100.419 18.78L 100.419 28.128M 107.253 28.128L 107.253 22.074C 107.253 21.362 107.349 18.79 104.966 18.587C 103.208 18.437 101.519 19.562 100.743 20.956M 119.03 28.124L 119.03 14.123M 118.67 26.773C 117.808 27.871 116.71 28.34 115.4 28.34C 113.219 28.34 111.567 27.029 111.567 23.458C 111.567 19.886 113.324 18.575 115.506 18.575C 116.775 18.575 117.985 19.114 118.67 20.175M 124.016 14.125L 124.016 28.126M 129.108 14.971L 129.132 14.971M 129.092 18.804L 129.092 28.145M 134.019 18.78L 134.019 28.128M 140.853 28.128L 140.853 22.074C 140.853 21.362 140.949 18.79 138.566 18.587C 136.808 18.437 135.119 19.562 134.343 20.956M 152.277 27.218C 151.304 28.155 150.279 28.339 149.094 28.339C 147.025 28.339 145.161 27.028 145.161 23.456C 145.161 19.884 146.971 18.573 149.04 18.573C 151.108 18.573 152.712 19.63 152.712 23.201L 145.492 23.201M 162.918 20.381C 162.622 19.404 161.468 18.584 159.858 18.584C 157.97 18.584 156.75 19.447 156.659 20.751C 156.554 22.246 157.788 22.822 159.718 23.339C 161.412 23.797 163.355 24.277 163.201 26.122C 163.102 27.31 162.125 28.346 159.768 28.346C 157.862 28.346 156.785 27.53 156.45 26.424M 173.728 20.381C 173.432 19.404 172.278 18.584 170.668 18.584C 168.78 18.584 167.56 19.447 167.469 20.751C 167.364 22.246 168.598 22.822 170.528 23.339C 172.222 23.797 174.165 24.277 174.011 26.122C 173.912 27.31 172.935 28.346 170.578 28.346C 168.672 28.346 167.595 27.53 167.26 26.424"></path></g></g></g><g id="g-root-tx_errorpre_vah3ag1ano074-stroke" data-item-order="0" data-item-id="tx_errorpre_vah3ag1ano074" data-item-class="Label Stroke SceneTarget Indexed" data-item-index="3" data-renderer-id="0" transform="translate(135, 267)"><g id="tx_errorpre_vah3ag1ano074-stroke" fill="none" stroke-linecap="square" stroke-linejoin="miter" stroke-miterlimit="4" stroke="#484848" stroke-width="2"><g xmlns="http://www.w3.org/2000/svg"><path d="M 23.077 28.137L 15.514 28.142L 15.514 14.95C 16.462 14.95 21.636 14.95 23.036 14.95M 22.024 21.297L 15.978 21.297M 30.725 18.609C 29.344 18.419 28.096 19.319 27.454 20.619M 27.099 18.773L 27.099 28.123M 37.835 18.609C 36.454 18.419 35.206 19.319 34.564 20.619M 34.209 18.773L 34.209 28.123M 49.137 23.457C 49.137 26.522 47.266 28.34 44.958 28.34C 42.65 28.34 40.779 26.522 40.779 23.457C 40.779 20.392 42.65 18.573 44.958 18.573C 47.266 18.573 49.137 20.392 49.137 23.457ZM 56.935 18.609C 55.554 18.419 54.306 19.319 53.664 20.619M 53.309 18.773L 53.309 28.123M 66.801 28.131L 66.801 14.944L 72.08 14.928C 73.178 14.967 75.563 15.749 75.563 18.572C 75.563 21.394 73.178 22.254 72.08 22.331L 67.329 22.345M 83.285 18.609C 81.904 18.419 80.656 19.319 80.014 20.619M 79.659 18.773L 79.659 28.123M 93.437 27.218C 92.464 28.155 91.439 28.339 90.254 28.339C 88.185 28.339 86.321 27.028 86.321 23.456C 86.321 19.884 88.131 18.573 90.2 18.573C 92.268 18.573 93.872 19.63 93.872 23.201L 86.652 23.201M 104.073 18.691L 100.703 28.119L 100.502 28.119L 97.098 18.691M 114.717 27.218C 113.744 28.155 112.719 28.339 111.534 28.339C 109.465 28.339 107.601 27.028 107.601 23.456C 107.601 19.884 109.411 18.573 111.48 18.573C 113.548 18.573 115.152 19.63 115.152 23.201L 107.932 23.201M 119.199 18.78L 119.199 28.128M 126.033 28.128L 126.033 22.074C 126.033 21.362 126.129 18.79 123.746 18.587C 121.988 18.437 120.299 19.562 119.523 20.956M 133.779 28.326C 132.37 28.465 131.512 27.732 131.512 26.387L 131.512 16.081M 133.662 18.642L 131.898 18.642M 129.402 18.642L 131.135 18.642M 137.868 14.971L 137.892 14.971M 137.852 18.804L 137.852 28.145M 150.577 23.457C 150.577 26.522 148.706 28.34 146.398 28.34C 144.09 28.34 142.219 26.522 142.219 23.457C 142.219 20.392 144.09 18.573 146.398 18.573C 148.706 18.573 150.577 20.392 150.577 23.457ZM 154.769 18.78L 154.769 28.128M 161.603 28.128L 161.603 22.074C 161.603 21.362 161.699 18.79 159.316 18.587C 157.558 18.437 155.869 19.562 155.093 20.956"></path></g></g></g><g id="g-root-2_1qappt41anpfd3-stroke" data-item-order="0" data-item-id="2_1qappt41anpfd3" data-item-class="Icon Stroke SceneTarget Indexed" data-item-index="3" data-renderer-id="0" transform="translate(303, 255)"><g id="2_1qappt41anpfd3-stroke" fill="none" stroke-linecap="round" stroke-linejoin="round" stroke-miterlimit="1.5" stroke="#e15e5a" stroke-width="2"><g xmlns="http://www.w3.org/2000/svg"><path d="M 13 16L 55 16C 55 16 57 16 57 18L 57 50C 57 50 57 52 55 52L 13 52C 13 52 11 52 11 50L 11 18C 11 18 11 16 13 16M 10 10M 42 25.868L 25.736 42.132M 25.736 25.868L 42 42.132"></path></g></g></g><g id="g-root-tx_datainte_vah3ag1ano075-stroke" data-item-order="0" data-item-id="tx_datainte_vah3ag1ano075" data-item-class="Label Stroke SceneTarget Indexed" data-item-index="2" data-renderer-id="0" transform="translate(69, 339)"><g id="tx_datainte_vah3ag1ano075-stroke" fill="none" stroke-linecap="square" stroke-linejoin="miter" stroke-miterlimit="4" stroke="#484848" stroke-width="2"><g xmlns="http://www.w3.org/2000/svg"><path d="M 21.077 28.18L 17.068 28.183L 17.068 14.948C 18.015 14.948 19.294 14.946 20.694 14.946C 22.147 14.91 25.927 16.173 25.927 21.511C 25.927 26.848 22.402 28.18 21.077 28.18ZM 30.618 20.246C 30.982 19.28 32.398 18.567 33.738 18.567C 35.592 18.567 37.094 19.88 37.094 21.499L 37.1 22.957L 37.1 25.571C 37.1 26.614 37.075 27.353 37.377 28.278M 36.72 22.957L 33.992 22.957C 31.489 22.957 30.189 24.343 30.189 25.837C 30.189 27.331 31.427 28.341 33.043 28.341C 35.025 28.341 36.651 26.888 37.051 25.732M 44.899 28.326C 43.49 28.465 42.632 27.732 42.632 26.387L 42.632 16.081M 44.782 18.642L 43.018 18.642M 40.522 18.642L 42.255 18.642M 48.928 20.246C 49.292 19.28 50.708 18.567 52.048 18.567C 53.902 18.567 55.404 19.88 55.404 21.499L 55.41 22.957L 55.41 25.571C 55.41 26.614 55.385 27.353 55.687 28.278M 55.03 22.957L 52.302 22.957C 49.799 22.957 48.499 24.343 48.499 25.837C 48.499 27.331 49.737 28.341 51.353 28.341C 53.335 28.341 54.961 26.888 55.361 25.732M 66.725 14.938L 66.725 28.127M 71.949 18.78L 71.949 28.128M 78.783 28.128L 78.783 22.074C 78.783 21.362 78.879 18.79 76.496 18.587C 74.738 18.437 73.049 19.562 72.273 20.956M 86.529 28.326C 85.12 28.465 84.262 27.732 84.262 26.387L 84.262 16.081M 86.412 18.642L 84.648 18.642M 82.152 18.642L 83.885 18.642M 97.087 27.218C 96.114 28.155 95.089 28.339 93.904 28.339C 91.835 28.339 89.972 27.028 89.972 23.456C 89.972 19.884 91.781 18.573 93.85 18.573C 95.918 18.573 97.522 19.63 97.522 23.201L 90.302 23.201M 108.579 18.652L 108.579 28.654C 108.579 33.351 103.286 33.001 101.851 31.47M 108.245 26.573C 107.565 27.661 106.341 28.214 105.055 28.214C 102.874 28.214 101.117 26.903 101.117 23.331C 101.117 19.76 102.768 18.449 104.95 18.449C 106.218 18.449 107.523 19.129 108.245 20.502M 116.945 18.609C 115.564 18.419 114.316 19.319 113.674 20.619M 113.319 18.773L 113.319 28.123M 120.628 14.971L 120.652 14.971M 120.612 18.804L 120.612 28.145M 128.509 28.326C 127.1 28.465 126.242 27.732 126.242 26.387L 126.242 16.081M 128.392 18.642L 126.628 18.642M 124.132 18.642L 125.865 18.642M 131.769 32.437C 133.323 32.683 134.245 31.233 134.602 30.286L 138.453 18.691M 131.593 18.691L 134.934 28.1"></path></g></g></g><g id="g-root-bars_1czvoiw1anpdsa-stroke" data-item-order="0" data-item-id="bars_1czvoiw1anpdsa" data-item-class="Icon Stroke SceneTarget Indexed" data-item-index="2" data-renderer-id="0" transform="translate(213, 327)"><g id="bars_1czvoiw1anpdsa-stroke" fill="none" stroke-linecap="round" stroke-linejoin="round" stroke-miterlimit="1.5" stroke="#dd8433" stroke-width="2"><g xmlns="http://www.w3.org/2000/svg"><path d="M 10.882 49L 56.882 49M 18.882 49L 18.882 40C 18.882 39.448 18.434 39 17.882 39L 13.882 39C 13.33 39 12.882 39.448 12.882 40L 12.882 49M 30.882 49L 30.882 30C 30.882 29.448 30.434 29 29.882 29L 25.882 29C 25.33 29 24.882 29.448 24.882 30L 24.882 49M 42.882 49L 42.882 34C 42.882 33.448 42.434 33 41.882 33L 37.882 33C 37.33 33 36.882 33.448 36.882 34L 36.882 49M 54.882 49L 54.882 20C 54.882 19.448 54.434 19 53.882 19L 49.882 19C 49.33 19 48.882 19.448 48.882 20L 48.882 49"></path></g></g></g><g id="g-root-tx_dataqual_vah3ag1ano076-stroke" data-item-order="0" data-item-id="tx_dataqual_vah3ag1ano076" data-item-class="Label Stroke SceneTarget Indexed Indexed_1" data-item-index="1" data-renderer-id="0" transform="translate(-9, 411)"><g id="tx_dataqual_vah3ag1ano076-stroke" fill="none" stroke-linecap="square" stroke-linejoin="miter" stroke-miterlimit="4" stroke="#484848" stroke-width="2"><g xmlns="http://www.w3.org/2000/svg"><path d="M 20.727 28.18L 16.718 28.183L 16.718 14.948C 17.665 14.948 18.944 14.946 20.344 14.946C 21.797 14.91 25.577 16.173 25.577 21.511C 25.577 26.848 22.052 28.18 20.727 28.18ZM 30.268 20.246C 30.632 19.28 32.048 18.567 33.388 18.567C 35.242 18.567 36.744 19.88 36.744 21.499L 36.75 22.957L 36.75 25.571C 36.75 26.614 36.725 27.353 37.027 28.278M 36.37 22.957L 33.642 22.957C 31.139 22.957 29.839 24.343 29.839 25.837C 29.839 27.331 31.077 28.341 32.693 28.341C 34.675 28.341 36.301 26.888 36.701 25.732M 44.549 28.326C 43.14 28.465 42.282 27.732 42.282 26.387L 42.282 16.081M 44.432 18.642L 42.668 18.642M 40.172 18.642L 41.905 18.642M 48.578 20.246C 48.942 19.28 50.358 18.567 51.698 18.567C 53.552 18.567 55.054 19.88 55.054 21.499L 55.06 22.957L 55.06 25.571C 55.06 26.614 55.035 27.353 55.337 28.278M 54.68 22.957L 51.952 22.957C 49.449 22.957 48.149 24.343 48.149 25.837C 48.149 27.331 49.387 28.341 51.003 28.341C 52.985 28.341 54.611 26.888 55.011 25.732M 75.342 30.37L 72.651 28.326M 70.658 28.326C 67.649 28.326 65.603 26.143 65.603 21.438C 65.603 16.733 67.819 14.721 70.658 14.721C 73.497 14.721 75.713 16.733 75.713 21.438C 75.713 26.143 73.667 28.326 70.658 28.326ZM 87.167 28.115L 87.166 18.767M 80.332 18.767L 80.332 24.821C 80.332 25.533 80.237 28.096 82.619 28.308C 84.71 28.493 85.983 27.653 86.685 26.47M 92.088 20.246C 92.452 19.28 93.868 18.567 95.208 18.567C 97.062 18.567 98.564 19.88 98.564 21.499L 98.57 22.957L 98.57 25.571C 98.57 26.614 98.545 27.353 98.847 28.278M 98.19 22.957L 95.462 22.957C 92.959 22.957 91.659 24.343 91.659 25.837C 91.659 27.331 92.897 28.341 94.513 28.341C 96.495 28.341 98.121 26.888 98.521 25.732M 103.536 14.125L 103.536 28.126M 108.628 14.971L 108.652 14.971M 108.612 18.804L 108.612 28.145M 116.509 28.326C 115.1 28.465 114.242 27.732 114.242 26.387L 114.242 16.081M 116.392 18.642L 114.628 18.642M 112.132 18.642L 113.865 18.642M 119.769 32.437C 121.323 32.683 122.245 31.233 122.602 30.286L 126.453 18.691M 119.593 18.691L 122.934 28.1"></path></g></g></g><g id="g-root-chec_58o2w1ans744-stroke" data-item-order="0" data-item-id="chec_58o2w1ans744" data-item-class="Icon Stroke SceneTarget Indexed Indexed_1" data-item-index="1" data-renderer-id="0" transform="translate(123, 399)"><g id="chec_58o2w1ans744-stroke" fill="none" stroke-linecap="round" stroke-linejoin="round" stroke-miterlimit="1.5" stroke="#e3cd09" stroke-width="2"><g xmlns="http://www.w3.org/2000/svg"><path d="M 29 57L 13 57C 11.895 57 11 56.105 11 55L 11 13C 11 11.895 11.895 11 13 11L 39.586 11C 40.116 11 40.625 11.211 41 11.586L 48.414 19C 48.789 19.375 49 19.884 49 20.414L 49 27M 19 37.818L 24.908 31.91C 25.491 31.328 26.403 31.238 27.088 31.694L 29.874 33.552C 30.577 34.02 31.514 33.912 32.092 33.296L 37.568 27.454M 19 23L 19 43L 27 43M 33 45C 33 51.627 38.373 57 45 57C 51.627 57 57 51.627 57 45C 57 38.373 51.627 33 45 33C 38.373 33 33 38.373 33 45ZM 50.348 41.512L 44.538 49.258C 44.277 49.605 43.878 49.823 43.444 49.854C 43.01 49.885 42.584 49.727 42.276 49.42L 39.276 46.42"></path></g></g></g></g></svg>